;TYPE=PLATED
;Layer: PTH_Through
;EasyEDA Pro v2.2.46.11, 2026-04-02 23:35:58
;Gerber Generator version 0.3
M48
METRIC,LZ,0000.00000
;Hole size 1 = 0.90002 METRIC
T01C0.90002
;Hole size 2 = 0.91440 METRIC
T02C0.91440
;Hole size 3 = 1.20000 METRIC
T03C1.20000
;Hole size 4 = 1.50002 METRIC
T04C1.50002
;Hole size 5 = 6.00000 METRIC
T05C6.00000
%
G05
G90
T01
X-50.419Y-5.207
X-41.41899Y-5.207
X-50.546Y-12.192
X-41.54599Y-12.192
X-50.292Y-20.193
X-41.29199Y-20.193
T02
X-26.67Y39.148
X-24.13Y39.148
X-21.59Y39.148
X-19.05Y39.148
X-26.67Y-32.85201
X-21.463Y-32.85201
X-9.017Y39.148
X-6.477Y39.148
X-3.937Y39.148
X-1.397Y39.148
X-9.017Y-32.85201
X-3.81Y-32.85201
X-68.326Y41.148
X-68.326Y38.608
X-68.326Y33.528
X-68.326Y30.988
X-68.326Y28.448
X-68.326Y25.908
X-68.326Y23.368
X-68.326Y20.828
X-68.326Y18.288
X-68.326Y15.748
X-68.326Y13.208
X-53.086Y13.208
X-53.086Y15.748
X-53.086Y18.288
X-53.086Y20.828
X-53.086Y23.368
X-53.086Y25.908
X-53.086Y28.448
X-53.086Y30.988
X-53.086Y33.528
X-53.086Y36.068
X-53.086Y38.608
X-53.086Y41.148
X-68.326Y36.068
T03
X-22.86Y22.14801
X-22.86Y-18.85201
X-5.207Y22.14801
X-5.207Y-18.85201
T04
X-57.75808Y-44.53687
X-70.25792Y-44.53687
X-57.75808Y-39.53688
X-70.25792Y-39.53688
X-58.13908Y-11.89787
X-70.63892Y-11.89787
X-58.13908Y-6.89788
X-70.63892Y-6.89788
X-57.88508Y-27.77287
X-70.38492Y-27.77287
X-57.88508Y-22.77288
X-70.38492Y-22.77288
T05
X-75.946Y39.243
X9.779Y39.243
X9.398Y-46.863
X-44.323Y-49.53
M30