G04 Layer: BottomLayer*
G04 EasyEDA Pro v2.2.46.11, 2026-04-02 23:35:58*
G04 Gerber Generator version 0.3*
G04 Scale: 100 percent, Rotated: No, Reflected: No*
G04 Dimensions in millimeters*
G04 Leading zeros omitted, absolute positions, 4 integers and 5 decimals*
G04 Generated by one-click*
%FSLAX45Y45*%
%MOMM*%
%ADD10C,2.49999*%
%ADD11C,1.524*%
%ADD12C,2.0*%
%ADD13R,1.524X1.524*%
%ADD14C,7.0*%
%ADD15C,0.2561*%
%ADD16C,0.254*%
G75*


G04 Pad Start*
G54D10*
G01X-5775808Y-4453699D03*
G01X-7025792Y-4453699D03*
G01X-5775808Y-3953700D03*
G01X-7025792Y-3953700D03*
G01X-5813908Y-1189799D03*
G01X-7063892Y-1189799D03*
G01X-5813908Y-689800D03*
G01X-7063892Y-689800D03*
G01X-5788508Y-2777299D03*
G01X-7038492Y-2777299D03*
G01X-5788508Y-2277300D03*
G01X-7038492Y-2277300D03*
G54D11*
G01X-2666995Y3914800D03*
G01X-2412995Y3914800D03*
G01X-2158995Y3914800D03*
G01X-1904995Y3914800D03*
G01X-2666995Y-3285211D03*
G01X-2146295Y-3285211D03*
G01X-2285995Y2214803D03*
G01X-2285995Y-1885214D03*
G01X-901695Y3914800D03*
G01X-647695Y3914800D03*
G01X-393695Y3914800D03*
G01X-139695Y3914800D03*
G01X-901695Y-3285211D03*
G01X-380995Y-3285211D03*
G01X-520695Y2214803D03*
G01X-520695Y-1885214D03*
G54D12*
G01X-5041900Y-520700D03*
G01X-4141902Y-520700D03*
G01X-5054600Y-1219200D03*
G01X-4154602Y-1219200D03*
G01X-5029200Y-2019300D03*
G01X-4129202Y-2019300D03*
G54D13*
G01X-6832600Y4114800D03*
G54D11*
G01X-6832600Y3860800D03*
G01X-6832600Y3352800D03*
G01X-6832600Y3098800D03*
G01X-6832600Y2844800D03*
G01X-6832600Y2590800D03*
G01X-6832600Y2336800D03*
G01X-6832600Y2082800D03*
G01X-6832600Y1828800D03*
G01X-6832600Y1574800D03*
G01X-6832600Y1320800D03*
G01X-5308600Y1320800D03*
G01X-5308600Y1574800D03*
G01X-5308600Y1828800D03*
G01X-5308600Y2082800D03*
G01X-5308600Y2336800D03*
G01X-5308600Y2590800D03*
G01X-5308600Y2844800D03*
G01X-5308600Y3098800D03*
G01X-5308600Y3352800D03*
G01X-5308600Y3606800D03*
G01X-5308600Y3860800D03*
G01X-5308600Y4114800D03*
G01X-6832600Y3606800D03*
G54D14*
G01X-7594600Y3924300D03*
G01X977900Y3924300D03*
G01X939800Y-4686300D03*
G01X-4432300Y-4953000D03*
G04 Pad End*

G04 Track Start*
G54D16*
G01X-7063892Y-689800D02*
G01X-7063892Y1343508D01*
G01X-6832600Y1574800D01*
G01X-7038492Y-2277300D02*
G01X-6832600Y-2071408D01*
G01X-6832600Y1320800D01*
G01X-2666995Y3914800D02*
G01X-2539995Y4041800D01*
G01X-1028695Y4041800D01*
G01X-901695Y3914800D01*
G01X-2666995Y3914800D02*
G01X-3555995Y3914800D01*
G01X-4114795Y3356000D01*
G01X-5305400Y3356000D02*
G01X-5308600Y3352800D01*
G01X-4140195Y3356000D02*
G01X-4140195Y-518993D01*
G01X-4141902Y-520700D01*
G01X-4345102Y-520700D01*
G01X-5043602Y-1219200D01*
G01X-5054600Y-1219200D01*
G01X-5043602Y-1219200D02*
G01X-5043602Y-2004898D01*
G01X-5029200Y-2019300D01*
G01X-5788508Y-2277300D02*
G01X-4387202Y-2277300D01*
G01X-4129202Y-2019300D01*
G01X-5775808Y-3953700D02*
G01X-5953608Y-3775900D01*
G01X-5953608Y-1921700D01*
G01X-5041900Y-1009993D01*
G01X-5041900Y-520700D01*
G01X-7025792Y-3953700D02*
G01X-6705600Y-3633508D01*
G01X-6705600Y1701800D01*
G01X-6832600Y1828800D01*
G01X-4114795Y3356000D02*
G01X-4140195Y3356000D01*
G01X-5305400Y3356000D01*
G04 Track End*

M02*

