G04 Layer: TopLayer*
G04 EasyEDA Pro v2.2.46.11, 2026-04-02 23:35:58*
G04 Gerber Generator version 0.3*
G04 Scale: 100 percent, Rotated: No, Reflected: No*
G04 Dimensions in millimeters*
G04 Leading zeros omitted, absolute positions, 4 integers and 5 decimals*
G04 Generated by one-click*
%FSLAX45Y45*%
%MOMM*%
%ADD10C,0.203*%
%ADD11C,2.49999*%
%ADD12R,4.0X3.0*%
%ADD13C,4.99999*%
%ADD14C,1.524*%
%ADD15C,2.0*%
%ADD16R,1.5217X1.524*%
%ADD17R,1.524X1.524*%
%ADD18C,7.0*%
%ADD19C,0.254*%
G75*


G04 Image Start*
G36*
G01X-1313116Y-5031624D02*
G01X-1349659Y-5033800D01*
G01X-1378892Y-5033282D01*
G01X-1408127Y-5032764D01*
G01X-1424114Y-5031264D01*
G01X-1440101Y-5029763D01*
G01X-1457002Y-5027452D01*
G01X-1473903Y-5025142D01*
G01X-1481668Y-5023724D01*
G01X-1489434Y-5022305D01*
G01X-1502566Y-5019504D01*
G01X-1515698Y-5016702D01*
G01X-1530430Y-5013020D01*
G01X-1545161Y-5009338D01*
G01X-1558864Y-5005238D01*
G01X-1572568Y-5001138D01*
G01X-1584509Y-4996979D01*
G01X-1596451Y-4992821D01*
G01X-1609175Y-4987757D01*
G01X-1621900Y-4982694D01*
G01X-1636061Y-4976441D01*
G01X-1650221Y-4970188D01*
G01X-1663924Y-4963229D01*
G01X-1677628Y-4956270D01*
G01X-1687677Y-4950681D01*
G01X-1697726Y-4945093D01*
G01X-1714170Y-4934846D01*
G01X-1730614Y-4924599D01*
G01X-1741120Y-4917141D01*
G01X-1751626Y-4909684D01*
G01X-1762132Y-4901756D01*
G01X-1772638Y-4893828D01*
G01X-1782230Y-4885986D01*
G01X-1791823Y-4878144D01*
G01X-1800959Y-4869731D01*
G01X-1810094Y-4861319D01*
G01X-1820378Y-4851650D01*
G01X-1830663Y-4841981D01*
G01X-1845619Y-4825645D01*
G01X-1860575Y-4809310D01*
G01X-1867575Y-4800977D01*
G01X-1874575Y-4792645D01*
G01X-1881731Y-4783335D01*
G01X-1888887Y-4774025D01*
G01X-1897885Y-4761490D01*
G01X-1906883Y-4748955D01*
G01X-1926386Y-4718200D01*
G01X-1934762Y-4703399D01*
G01X-1943138Y-4688599D01*
G01X-1952576Y-4669100D01*
G01X-1962013Y-4649600D01*
G01X-1968834Y-4633351D01*
G01X-1975656Y-4617101D01*
G01X-1980717Y-4603173D01*
G01X-1985779Y-4589245D01*
G01X-1989907Y-4575781D01*
G01X-1994035Y-4562317D01*
G01X-1996828Y-4552103D01*
G01X-1999621Y-4541889D01*
G01X-2003704Y-4523690D01*
G01X-2007788Y-4505491D01*
G01X-2014207Y-4465748D01*
G01X-2016784Y-4442535D01*
G01X-1917457Y-4442535D01*
G01X-1916496Y-4459248D01*
G01X-1915534Y-4475962D01*
G01X-1914172Y-4485712D01*
G01X-1912809Y-4495462D01*
G01X-1910470Y-4505212D01*
G01X-1908131Y-4514961D01*
G01X-1904594Y-4522682D01*
G01X-1901057Y-4530403D01*
G01X-1896360Y-4536402D01*
G01X-1891664Y-4542400D01*
G01X-1886051Y-4546442D01*
G01X-1880438Y-4550484D01*
G01X-1876636Y-4552432D01*
G01X-1872834Y-4554379D01*
G01X-1866610Y-4556760D01*
G01X-1860387Y-4559141D01*
G01X-1849401Y-4561372D01*
G01X-1838415Y-4563603D01*
G01X-1813748Y-4566433D01*
G01X-1789996Y-4567396D01*
G01X-1766243Y-4568360D01*
G01X-1766243Y-4568360D01*
G01X-1689047Y-4569290D01*
G01X-1611851Y-4570219D01*
G01X-1560235Y-4570219D01*
G01X-1508618Y-4570218D01*
G01X-1494458Y-4569261D01*
G01X-1480298Y-4568304D01*
G01X-1456545Y-4564724D01*
G01X-1448323Y-4562355D01*
G01X-1440101Y-4559986D01*
G01X-1431422Y-4555602D01*
G01X-1422744Y-4551217D01*
G01X-1409660Y-4537966D01*
G01X-1405452Y-4529175D01*
G01X-1401244Y-4520383D01*
G01X-1399397Y-4513608D01*
G01X-1397550Y-4506833D01*
G01X-1395766Y-4496228D01*
G01X-1393982Y-4485624D01*
G01X-1393308Y-4473177D01*
G01X-1317465Y-4473177D01*
G01X-1315386Y-4499457D01*
G01X-1313202Y-4508210D01*
G01X-1311017Y-4516963D01*
G01X-1308058Y-4522926D01*
G01X-1305099Y-4528889D01*
G01X-1301157Y-4534101D01*
G01X-1297215Y-4539312D01*
G01X-1297215Y-4539312D01*
G01X-1284611Y-4551491D01*
G01X-1272006Y-4563669D01*
G01X-842746Y-4563246D01*
G01X-838565Y-4546532D01*
G01X-837663Y-4539401D01*
G01X-836760Y-4532270D01*
G01X-838492Y-4516818D01*
G01X-841303Y-4508010D01*
G01X-844114Y-4499202D01*
G01X-846943Y-4494082D01*
G01X-849772Y-4488962D01*
G01X-854291Y-4482682D01*
G01X-858809Y-4476403D01*
G01X-863699Y-4471973D01*
G01X-868589Y-4467543D01*
G01X-883181Y-4458720D01*
G01X-888381Y-4456902D01*
G01X-893581Y-4455084D01*
G01X-901451Y-4453729D01*
G01X-909321Y-4452374D01*
G01X-918000Y-4451432D01*
G01X-926679Y-4450490D01*
G01X-963221Y-4448540D01*
G01X-1073912Y-4446234D01*
G01X-1184602Y-4443928D01*
G01X-1186588Y-4443928D01*
G01X-1186628Y-4406089D01*
G01X-1186669Y-4368251D01*
G01X-1188254Y-4328324D01*
G01X-1189361Y-4323217D01*
G01X-1190467Y-4318110D01*
G01X-1192129Y-4314770D01*
G01X-1193791Y-4311429D01*
G01X-1198205Y-4308489D01*
G01X-1205148Y-4307032D01*
G01X-1212090Y-4305575D01*
G01X-1225604Y-4305675D01*
G01X-1239118Y-4305776D01*
G01X-1258626Y-4308177D01*
G01X-1263389Y-4309215D01*
G01X-1268153Y-4310254D01*
G01X-1274194Y-4313480D01*
G01X-1280235Y-4316707D01*
G01X-1295938Y-4329551D01*
G01X-1300281Y-4335424D01*
G01X-1304624Y-4341296D01*
G01X-1306698Y-4345488D01*
G01X-1308771Y-4349680D01*
G01X-1310223Y-4354805D01*
G01X-1311674Y-4359930D01*
G01X-1313065Y-4371519D01*
G01X-1314456Y-4383108D01*
G01X-1315385Y-4401215D01*
G01X-1316314Y-4419321D01*
G01X-1316890Y-4446249D01*
G01X-1317465Y-4473177D01*
G01X-1393308Y-4473177D01*
G01X-1391797Y-4445320D01*
G01X-1392908Y-4353859D01*
G01X-1394019Y-4262397D01*
G01X-1394590Y-4204614D01*
G01X-1317227Y-4204614D01*
G01X-1317227Y-4214539D01*
G01X-1315700Y-4218505D01*
G01X-1314173Y-4222470D01*
G01X-1308898Y-4230391D01*
G01X-1306740Y-4231828D01*
G01X-1304582Y-4233265D01*
G01X-1296591Y-4234580D01*
G01X-1288601Y-4235894D01*
G01X-1263859Y-4236959D01*
G01X-1263859Y-4236959D01*
G01X-1239118Y-4238024D01*
G01X-1190698Y-4237416D01*
G01X-1142280Y-4236807D01*
G01X-1040417Y-4234987D01*
G01X-938555Y-4233168D01*
G01X-935358Y-4233025D01*
G01X-932160Y-4232882D01*
G01X-1015294Y-4231277D01*
G01X-1098429Y-4229672D01*
G01X-1188186Y-4227501D01*
G01X-1277944Y-4225329D01*
G01X-1277944Y-4224090D01*
G01X-1158495Y-4223380D01*
G01X-1039047Y-4222669D01*
G01X-1001591Y-4223265D01*
G01X-964135Y-4223861D01*
G01X-946321Y-4224826D01*
G01X-928506Y-4225792D01*
G01X-920529Y-4227073D01*
G01X-912553Y-4228354D01*
G01X-907631Y-4230721D01*
G01X-902709Y-4233087D01*
G01X-899148Y-4233666D01*
G01X-895586Y-4234245D01*
G01X-885135Y-4230511D01*
G01X-879414Y-4226996D01*
G01X-873692Y-4223481D01*
G01X-863910Y-4214125D01*
G01X-862087Y-4210492D01*
G01X-860263Y-4206859D01*
G01X-860898Y-4200830D01*
G01X-861534Y-4194801D01*
G01X-857459Y-4195368D01*
G01X-853386Y-4195936D01*
G01X-849835Y-4192826D01*
G01X-846285Y-4189716D01*
G01X-843200Y-4184497D01*
G01X-840115Y-4179277D01*
G01X-835780Y-4167137D01*
G01X-835780Y-4157936D01*
G01X-838883Y-4157936D01*
G01X-844961Y-4162081D01*
G01X-851040Y-4166226D01*
G01X-855195Y-4167356D01*
G01X-859349Y-4168485D01*
G01X-861725Y-4166903D01*
G01X-864100Y-4165321D01*
G01X-864100Y-4159707D01*
G01X-861269Y-4158125D01*
G01X-858439Y-4156543D01*
G01X-856130Y-4154759D01*
G01X-853821Y-4152975D01*
G01X-852129Y-4149187D01*
G01X-850437Y-4145400D01*
G01X-850417Y-4143866D01*
G01X-850396Y-4142332D01*
G01X-853365Y-4141278D01*
G01X-856335Y-4140225D01*
G01X-867754Y-4138865D01*
G01X-879174Y-4137506D01*
G01X-901556Y-4136136D01*
G01X-923938Y-4134766D01*
G01X-955456Y-4133819D01*
G01X-986974Y-4132872D01*
G01X-1060516Y-4133064D01*
G01X-1134058Y-4133257D01*
G01X-1143650Y-4133486D01*
G01X-1153242Y-4133714D01*
G01X-1180650Y-4134719D01*
G01X-1208056Y-4135724D01*
G01X-1243685Y-4138474D01*
G01X-1252577Y-4139821D01*
G01X-1261469Y-4141168D01*
G01X-1265180Y-4143093D01*
G01X-1268891Y-4145017D01*
G01X-1272551Y-4148378D01*
G01X-1276213Y-4151740D01*
G01X-1277142Y-4153505D01*
G01X-1278071Y-4155269D01*
G01X-1277015Y-4156562D01*
G01X-1275959Y-4157854D01*
G01X-1276549Y-4158824D01*
G01X-1277138Y-4159793D01*
G01X-1287138Y-4159793D01*
G01X-1290360Y-4161161D01*
G01X-1293581Y-4162529D01*
G01X-1295980Y-4164447D01*
G01X-1298378Y-4166365D01*
G01X-1300560Y-4169628D01*
G01X-1302742Y-4172891D01*
G01X-1306264Y-4183297D01*
G01X-1306264Y-4187540D01*
G01X-1305330Y-4188126D01*
G01X-1304396Y-4188713D01*
G01X-1295235Y-4185621D01*
G01X-1293802Y-4186829D01*
G01X-1292369Y-4188038D01*
G01X-1292921Y-4193647D01*
G01X-1293473Y-4199256D01*
G01X-1294044Y-4205882D01*
G01X-1294615Y-4212509D01*
G01X-1292179Y-4217025D01*
G01X-1289744Y-4221541D01*
G01X-1286128Y-4224155D01*
G01X-1282512Y-4226769D01*
G01X-1282512Y-4228505D01*
G01X-1287765Y-4228485D01*
G01X-1293018Y-4228464D01*
G01X-1300402Y-4225055D01*
G01X-1302877Y-4222066D01*
G01X-1305351Y-4219077D01*
G01X-1305757Y-4217059D01*
G01X-1306163Y-4215041D01*
G01X-1306515Y-4210390D01*
G01X-1306867Y-4205739D01*
G01X-1308173Y-4202961D01*
G01X-1309479Y-4200185D01*
G01X-1313362Y-4199619D01*
G01X-1315294Y-4202116D01*
G01X-1317227Y-4204614D01*
G01X-1394590Y-4204614D01*
G01X-1394599Y-4203661D01*
G01X-1395179Y-4144926D01*
G01X-1398455Y-4144055D01*
G01X-1401732Y-4143184D01*
G01X-1412237Y-4140341D01*
G01X-1422744Y-4137498D01*
G01X-1430052Y-4136931D01*
G01X-1437360Y-4136363D01*
G01X-1446039Y-4137429D01*
G01X-1454718Y-4138495D01*
G01X-1471900Y-4143215D01*
G01X-1487686Y-4150132D01*
G01X-1494341Y-4154671D01*
G01X-1500996Y-4159209D01*
G01X-1512614Y-4171963D01*
G01X-1514459Y-4175860D01*
G01X-1516305Y-4179757D01*
G01X-1517719Y-4185305D01*
G01X-1519132Y-4190853D01*
G01X-1520472Y-4203876D01*
G01X-1521813Y-4216898D01*
G01X-1522726Y-4248933D01*
G01X-1523638Y-4280968D01*
G01X-1524586Y-4351537D01*
G01X-1525533Y-4422107D01*
G01X-1526080Y-4435658D01*
G01X-1526626Y-4449210D01*
G01X-1560560Y-4449819D01*
G01X-1594493Y-4450428D01*
G01X-1659813Y-4451329D01*
G01X-1725133Y-4452229D01*
G01X-1778204Y-4453208D01*
G01X-1779792Y-4376373D01*
G01X-1781380Y-4299539D01*
G01X-1783156Y-4241969D01*
G01X-1784085Y-4228505D01*
G01X-1785014Y-4215041D01*
G01X-1786402Y-4204363D01*
G01X-1787789Y-4193685D01*
G01X-1790045Y-4184974D01*
G01X-1792300Y-4176264D01*
G01X-1795180Y-4170773D01*
G01X-1798059Y-4165282D01*
G01X-1801664Y-4161119D01*
G01X-1805269Y-4156957D01*
G01X-1810898Y-4152874D01*
G01X-1816527Y-4148791D01*
G01X-1821313Y-4146874D01*
G01X-1826099Y-4144956D01*
G01X-1846637Y-4139412D01*
G01X-1872216Y-4134888D01*
G01X-1880438Y-4134391D01*
G01X-1888661Y-4133895D01*
G01X-1892693Y-4134750D01*
G01X-1896726Y-4135606D01*
G01X-1903633Y-4140252D01*
G01X-1905938Y-4144249D01*
G01X-1908243Y-4148247D01*
G01X-1909611Y-4152187D01*
G01X-1910979Y-4156128D01*
G01X-1913673Y-4169543D01*
G01X-1915642Y-4188113D01*
G01X-1916523Y-4209006D01*
G01X-1917403Y-4229898D01*
G01X-1917430Y-4336216D01*
G01X-1917457Y-4442535D01*
G01X-2016784Y-4442535D01*
G01X-2016990Y-4440678D01*
G01X-2018080Y-4426750D01*
G01X-2019169Y-4412821D01*
G01X-2019235Y-4380322D01*
G01X-2019300Y-4347823D01*
G01X-2018134Y-4334359D01*
G01X-2016968Y-4320896D01*
G01X-2014172Y-4294896D01*
G01X-2007916Y-4256826D01*
G01X-2006112Y-4248469D01*
G01X-2004309Y-4240112D01*
G01X-2001588Y-4228505D01*
G01X-1998867Y-4216898D01*
G01X-1994650Y-4202042D01*
G01X-1990433Y-4187185D01*
G01X-1982976Y-4164900D01*
G01X-1979085Y-4154222D01*
G01X-1975193Y-4143543D01*
G01X-1968287Y-4127144D01*
G01X-1961380Y-4110745D01*
G01X-1953011Y-4093717D01*
G01X-1944641Y-4076688D01*
G01X-1937299Y-4063291D01*
G01X-1929958Y-4049894D01*
G01X-1912665Y-4021904D01*
G01X-1902995Y-4007976D01*
G01X-1893324Y-3994048D01*
G01X-1873261Y-3968048D01*
G01X-1864517Y-3957870D01*
G01X-1855772Y-3947692D01*
G01X-1842731Y-3933728D01*
G01X-1829689Y-3919764D01*
G01X-1818064Y-3908755D01*
G01X-1806440Y-3897746D01*
G01X-1792737Y-3885924D01*
G01X-1779033Y-3874102D01*
G01X-1764873Y-3863468D01*
G01X-1750712Y-3852835D01*
G01X-1726960Y-3836385D01*
G01X-1712800Y-3827553D01*
G01X-1698639Y-3818720D01*
G01X-1681739Y-3809502D01*
G01X-1664838Y-3800284D01*
G01X-1647480Y-3792102D01*
G01X-1630122Y-3783919D01*
G01X-1616455Y-3778175D01*
G01X-1602788Y-3772432D01*
G01X-1586764Y-3766622D01*
G01X-1570741Y-3760811D01*
G01X-1554297Y-3755605D01*
G01X-1537853Y-3750398D01*
G01X-1515771Y-3744827D01*
G01X-1493689Y-3739255D01*
G01X-1483796Y-3737883D01*
G01X-1473903Y-3736512D01*
G01X-1450150Y-3734494D01*
G01X-1446039Y-3734147D01*
G01X-1441928Y-3733800D01*
G01X-1374325Y-3734106D01*
G01X-1306721Y-3734412D01*
G01X-1292561Y-3735365D01*
G01X-1278401Y-3736319D01*
G01X-1266981Y-3737334D01*
G01X-1255561Y-3738349D01*
G01X-1241401Y-3740551D01*
G01X-1227241Y-3742752D01*
G01X-1211254Y-3746921D01*
G01X-1195266Y-3751090D01*
G01X-1175625Y-3757764D01*
G01X-1155983Y-3764437D01*
G01X-1143650Y-3769082D01*
G01X-1131317Y-3773727D01*
G01X-1093067Y-3790350D01*
G01X-1076563Y-3798574D01*
G01X-1060059Y-3806798D01*
G01X-1034479Y-3821080D01*
G01X-1024430Y-3827165D01*
G01X-1014381Y-3833250D01*
G01X-996110Y-3845743D01*
G01X-977838Y-3858237D01*
G01X-967789Y-3865917D01*
G01X-957740Y-3873597D01*
G01X-945212Y-3884221D01*
G01X-932683Y-3894847D01*
G01X-918262Y-3908378D01*
G01X-903840Y-3921910D01*
G01X-893715Y-3932908D01*
G01X-883589Y-3943906D01*
G01X-875900Y-3952728D01*
G01X-868211Y-3961549D01*
G01X-860359Y-3971298D01*
G01X-852507Y-3981048D01*
G01X-844011Y-3992655D01*
G01X-835515Y-4004262D01*
G01X-828376Y-4015088D01*
G01X-821237Y-4025914D01*
G01X-813118Y-4039230D01*
G01X-805000Y-4052546D01*
G01X-797606Y-4066143D01*
G01X-790213Y-4079740D01*
G01X-778889Y-4102687D01*
G01X-773447Y-4114759D01*
G01X-768005Y-4126830D01*
G01X-760418Y-4146329D01*
G01X-752831Y-4165828D01*
G01X-747784Y-4180257D01*
G01X-742736Y-4194687D01*
G01X-733531Y-4225255D01*
G01X-730768Y-4236862D01*
G01X-728004Y-4248469D01*
G01X-726179Y-4259387D01*
G01X-724353Y-4270305D01*
G01X-723000Y-4284458D01*
G01X-721648Y-4298610D01*
G01X-720511Y-4315788D01*
G01X-719374Y-4332967D01*
G01X-719300Y-4427678D01*
G01X-720498Y-4442535D01*
G01X-721695Y-4457391D01*
G01X-723947Y-4475498D01*
G01X-726200Y-4493605D01*
G01X-728061Y-4504747D01*
G01X-729922Y-4515890D01*
G01X-732632Y-4528889D01*
G01X-735343Y-4541889D01*
G01X-739396Y-4557674D01*
G01X-743449Y-4573460D01*
G01X-749284Y-4591102D01*
G01X-755120Y-4608744D01*
G01X-760359Y-4622208D01*
G01X-765598Y-4635672D01*
G01X-777773Y-4660743D01*
G01X-789947Y-4685814D01*
G01X-798523Y-4700206D01*
G01X-807099Y-4714598D01*
G01X-816281Y-4728527D01*
G01X-825463Y-4742455D01*
G01X-833894Y-4753938D01*
G01X-842326Y-4765422D01*
G01X-852516Y-4778080D01*
G01X-862706Y-4790739D01*
G01X-873681Y-4803271D01*
G01X-884655Y-4815803D01*
G01X-917292Y-4849657D01*
G01X-944950Y-4875560D01*
G01X-956370Y-4885080D01*
G01X-967789Y-4894600D01*
G01X-980579Y-4904327D01*
G01X-993369Y-4914053D01*
G01X-1024430Y-4934892D01*
G01X-1039504Y-4943882D01*
G01X-1054578Y-4952873D01*
G01X-1076047Y-4963789D01*
G01X-1097515Y-4974705D01*
G01X-1111219Y-4980582D01*
G01X-1124922Y-4986459D01*
G01X-1139001Y-4991934D01*
G01X-1153080Y-4997409D01*
G01X-1184796Y-5007565D01*
G01X-1202364Y-5012187D01*
G01X-1219933Y-5016808D01*
G01X-1232896Y-5019598D01*
G01X-1245860Y-5022390D01*
G01X-1272919Y-5027036D01*
G01X-1293018Y-5029330D01*
G01X-1313116Y-5031624D01*
G37*
G04 Image End*

G04 Text Start*
G54D10*
G01X-6177280Y2308860D02*
G01X-5990590Y2308860D01*
G01X-6177280Y2308860D02*
G01X-6177280Y2388870D01*
G01X-6168390Y2415540D01*
G01X-6159500Y2424430D01*
G01X-6141720Y2433320D01*
G01X-6115050Y2433320D01*
G01X-6097270Y2424430D01*
G01X-6088380Y2415540D01*
G01X-6079490Y2388870D01*
G01X-6079490Y2308860D01*
G01X-6115050Y2496312D02*
G01X-5990590Y2496312D01*
G01X-6061710Y2496312D02*
G01X-6088380Y2505202D01*
G01X-6106160Y2522982D01*
G01X-6115050Y2540762D01*
G01X-6115050Y2567432D01*
G01X-6115050Y2674874D02*
G01X-6106160Y2657094D01*
G01X-6088380Y2639314D01*
G01X-6061710Y2630424D01*
G01X-6043930Y2630424D01*
G01X-6017260Y2639314D01*
G01X-5999480Y2657094D01*
G01X-5990590Y2674874D01*
G01X-5990590Y2701544D01*
G01X-5999480Y2719324D01*
G01X-6017260Y2737104D01*
G01X-6043930Y2745994D01*
G01X-6061710Y2745994D01*
G01X-6088380Y2737104D01*
G01X-6106160Y2719324D01*
G01X-6115050Y2701544D01*
G01X-6115050Y2674874D01*
G01X-6177280Y3008122D02*
G01X-5990590Y3008122D01*
G01X-6177280Y3008122D02*
G01X-5990590Y3079242D01*
G01X-6177280Y3150362D02*
G01X-5990590Y3079242D01*
G01X-6177280Y3150362D02*
G01X-5990590Y3150362D01*
G01X-6177280Y3213354D02*
G01X-6168390Y3222244D01*
G01X-6177280Y3231134D01*
G01X-6186170Y3222244D01*
G01X-6177280Y3213354D01*
G01X-6115050Y3222244D02*
G01X-5990590Y3222244D01*
G01X-6088380Y3400806D02*
G01X-6106160Y3383026D01*
G01X-6115050Y3365246D01*
G01X-6115050Y3338576D01*
G01X-6106160Y3320796D01*
G01X-6088380Y3303016D01*
G01X-6061710Y3294126D01*
G01X-6043930Y3294126D01*
G01X-6017260Y3303016D01*
G01X-5999480Y3320796D01*
G01X-5990590Y3338576D01*
G01X-5990590Y3365246D01*
G01X-5999480Y3383026D01*
G01X-6017260Y3400806D01*
G01X-6115050Y3463798D02*
G01X-5990590Y3463798D01*
G01X-6061710Y3463798D02*
G01X-6088380Y3472688D01*
G01X-6106160Y3490468D01*
G01X-6115050Y3508248D01*
G01X-6115050Y3534918D01*
G01X-6115050Y3642360D02*
G01X-6106160Y3624580D01*
G01X-6088380Y3606800D01*
G01X-6061710Y3597910D01*
G01X-6043930Y3597910D01*
G01X-6017260Y3606800D01*
G01X-5999480Y3624580D01*
G01X-5990590Y3642360D01*
G01X-5990590Y3669030D01*
G01X-5999480Y3686810D01*
G01X-6017260Y3704590D01*
G01X-6043930Y3713480D01*
G01X-6061710Y3713480D01*
G01X-6088380Y3704590D01*
G01X-6106160Y3686810D01*
G01X-6115050Y3669030D01*
G01X-6115050Y3642360D01*
G01X-2988310Y1633220D02*
G01X-3006090Y1615440D01*
G01X-3014980Y1588770D01*
G01X-3014980Y1553210D01*
G01X-3006090Y1526540D01*
G01X-2988310Y1508760D01*
G01X-2970530Y1508760D01*
G01X-2952750Y1517650D01*
G01X-2943860Y1526540D01*
G01X-2934970Y1544320D01*
G01X-2917190Y1597660D01*
G01X-2908300Y1615440D01*
G01X-2899410Y1624330D01*
G01X-2881630Y1633220D01*
G01X-2854960Y1633220D01*
G01X-2837180Y1615440D01*
G01X-2828290Y1588770D01*
G01X-2828290Y1553210D01*
G01X-2837180Y1526540D01*
G01X-2854960Y1508760D01*
G01X-3014980Y1696212D02*
G01X-2828290Y1696212D01*
G01X-3014980Y1759204D02*
G01X-3006090Y1768094D01*
G01X-3014980Y1776984D01*
G01X-3023870Y1768094D01*
G01X-3014980Y1759204D01*
G01X-2952750Y1768094D02*
G01X-2828290Y1768094D01*
G01X-3014980Y1946656D02*
G01X-2828290Y1946656D01*
G01X-2926080Y1946656D02*
G01X-2943860Y1928876D01*
G01X-2952750Y1911096D01*
G01X-2952750Y1884426D01*
G01X-2943860Y1866646D01*
G01X-2926080Y1848866D01*
G01X-2899410Y1839976D01*
G01X-2881630Y1839976D01*
G01X-2854960Y1848866D01*
G01X-2837180Y1866646D01*
G01X-2828290Y1884426D01*
G01X-2828290Y1911096D01*
G01X-2837180Y1928876D01*
G01X-2854960Y1946656D01*
G01X-2899410Y2009648D02*
G01X-2899410Y2116328D01*
G01X-2917190Y2116328D01*
G01X-2934970Y2107438D01*
G01X-2943860Y2098548D01*
G01X-2952750Y2080768D01*
G01X-2952750Y2054098D01*
G01X-2943860Y2036318D01*
G01X-2926080Y2018538D01*
G01X-2899410Y2009648D01*
G01X-2881630Y2009648D01*
G01X-2854960Y2018538D01*
G01X-2837180Y2036318D01*
G01X-2828290Y2054098D01*
G01X-2828290Y2080768D01*
G01X-2837180Y2098548D01*
G01X-2854960Y2116328D01*
G01X-2952750Y2179320D02*
G01X-2828290Y2179320D01*
G01X-2899410Y2179320D02*
G01X-2926080Y2188210D01*
G01X-2943860Y2205990D01*
G01X-2952750Y2223770D01*
G01X-2952750Y2250440D01*
G01X-1235710Y2026925D02*
G01X-1253490Y2009145D01*
G01X-1262380Y1982475D01*
G01X-1262380Y1946915D01*
G01X-1253490Y1920245D01*
G01X-1235710Y1902465D01*
G01X-1217930Y1902465D01*
G01X-1200150Y1911355D01*
G01X-1191260Y1920245D01*
G01X-1182370Y1938025D01*
G01X-1164590Y1991365D01*
G01X-1155700Y2009145D01*
G01X-1146810Y2018035D01*
G01X-1129030Y2026925D01*
G01X-1102360Y2026925D01*
G01X-1084580Y2009145D01*
G01X-1075690Y1982475D01*
G01X-1075690Y1946915D01*
G01X-1084580Y1920245D01*
G01X-1102360Y1902465D01*
G01X-1262380Y2089917D02*
G01X-1075690Y2089917D01*
G01X-1262380Y2152909D02*
G01X-1253490Y2161799D01*
G01X-1262380Y2170689D01*
G01X-1271270Y2161799D01*
G01X-1262380Y2152909D01*
G01X-1200150Y2161799D02*
G01X-1075690Y2161799D01*
G01X-1262380Y2340361D02*
G01X-1075690Y2340361D01*
G01X-1173480Y2340361D02*
G01X-1191260Y2322581D01*
G01X-1200150Y2304801D01*
G01X-1200150Y2278131D01*
G01X-1191260Y2260351D01*
G01X-1173480Y2242571D01*
G01X-1146810Y2233681D01*
G01X-1129030Y2233681D01*
G01X-1102360Y2242571D01*
G01X-1084580Y2260351D01*
G01X-1075690Y2278131D01*
G01X-1075690Y2304801D01*
G01X-1084580Y2322581D01*
G01X-1102360Y2340361D01*
G01X-1146810Y2403353D02*
G01X-1146810Y2510033D01*
G01X-1164590Y2510033D01*
G01X-1182370Y2501143D01*
G01X-1191260Y2492253D01*
G01X-1200150Y2474473D01*
G01X-1200150Y2447803D01*
G01X-1191260Y2430023D01*
G01X-1173480Y2412243D01*
G01X-1146810Y2403353D01*
G01X-1129030Y2403353D01*
G01X-1102360Y2412243D01*
G01X-1084580Y2430023D01*
G01X-1075690Y2447803D01*
G01X-1075690Y2474473D01*
G01X-1084580Y2492253D01*
G01X-1102360Y2510033D01*
G01X-1200150Y2573025D02*
G01X-1075690Y2573025D01*
G01X-1146810Y2573025D02*
G01X-1173480Y2581915D01*
G01X-1191260Y2599695D01*
G01X-1200150Y2617475D01*
G01X-1200150Y2644145D01*
G01X-6517386Y-1463040D02*
G01X-6399530Y-1463040D01*
G01X-6517386Y-1463040D02*
G01X-6517386Y-1412494D01*
G01X-6511798Y-1395730D01*
G01X-6506210Y-1390142D01*
G01X-6495034Y-1384554D01*
G01X-6483604Y-1384554D01*
G01X-6472428Y-1390142D01*
G01X-6466840Y-1395730D01*
G01X-6461252Y-1412494D01*
G01X-6461252Y-1463040D02*
G01X-6461252Y-1412494D01*
G01X-6455664Y-1395730D01*
G01X-6450076Y-1390142D01*
G01X-6438646Y-1384554D01*
G01X-6421882Y-1384554D01*
G01X-6410706Y-1390142D01*
G01X-6405118Y-1395730D01*
G01X-6399530Y-1412494D01*
G01X-6399530Y-1463040D01*
G01X-6478016Y-1337310D02*
G01X-6421882Y-1337310D01*
G01X-6405118Y-1331722D01*
G01X-6399530Y-1320546D01*
G01X-6399530Y-1303528D01*
G01X-6405118Y-1292352D01*
G01X-6421882Y-1275588D01*
G01X-6478016Y-1275588D02*
G01X-6399530Y-1275588D01*
G01X-6517386Y-1211580D02*
G01X-6421882Y-1211580D01*
G01X-6405118Y-1205992D01*
G01X-6399530Y-1194562D01*
G01X-6399530Y-1183386D01*
G01X-6478016Y-1228344D02*
G01X-6478016Y-1188974D01*
G01X-6517386Y-1119378D02*
G01X-6421882Y-1119378D01*
G01X-6405118Y-1113790D01*
G01X-6399530Y-1102360D01*
G01X-6399530Y-1091184D01*
G01X-6478016Y-1136142D02*
G01X-6478016Y-1096772D01*
G01X-6478016Y-1015746D02*
G01X-6472428Y-1027176D01*
G01X-6461252Y-1038352D01*
G01X-6444488Y-1043940D01*
G01X-6433058Y-1043940D01*
G01X-6416294Y-1038352D01*
G01X-6405118Y-1027176D01*
G01X-6399530Y-1015746D01*
G01X-6399530Y-998982D01*
G01X-6405118Y-987806D01*
G01X-6416294Y-976630D01*
G01X-6433058Y-971042D01*
G01X-6444488Y-971042D01*
G01X-6461252Y-976630D01*
G01X-6472428Y-987806D01*
G01X-6478016Y-998982D01*
G01X-6478016Y-1015746D01*
G01X-6478016Y-923798D02*
G01X-6399530Y-923798D01*
G01X-6455664Y-923798D02*
G01X-6472428Y-907034D01*
G01X-6478016Y-895604D01*
G01X-6478016Y-878840D01*
G01X-6472428Y-867664D01*
G01X-6455664Y-862076D01*
G01X-6399530Y-862076D01*
G01X-6520180Y-2973687D02*
G01X-6333490Y-2973687D01*
G01X-6520180Y-2973687D02*
G01X-6520180Y-2893677D01*
G01X-6511290Y-2867007D01*
G01X-6502400Y-2858117D01*
G01X-6484620Y-2849227D01*
G01X-6466840Y-2849227D01*
G01X-6449060Y-2858117D01*
G01X-6440170Y-2867007D01*
G01X-6431280Y-2893677D01*
G01X-6431280Y-2973687D02*
G01X-6431280Y-2893677D01*
G01X-6422390Y-2867007D01*
G01X-6413500Y-2858117D01*
G01X-6395720Y-2849227D01*
G01X-6369050Y-2849227D01*
G01X-6351270Y-2858117D01*
G01X-6342380Y-2867007D01*
G01X-6333490Y-2893677D01*
G01X-6333490Y-2973687D01*
G01X-6457950Y-2786235D02*
G01X-6369050Y-2786235D01*
G01X-6342380Y-2777345D01*
G01X-6333490Y-2759565D01*
G01X-6333490Y-2732895D01*
G01X-6342380Y-2715115D01*
G01X-6369050Y-2688445D01*
G01X-6457950Y-2688445D02*
G01X-6333490Y-2688445D01*
G01X-6520180Y-2598783D02*
G01X-6369050Y-2598783D01*
G01X-6342380Y-2589893D01*
G01X-6333490Y-2572113D01*
G01X-6333490Y-2554333D01*
G01X-6457950Y-2625453D02*
G01X-6457950Y-2563223D01*
G01X-6520180Y-2464671D02*
G01X-6369050Y-2464671D01*
G01X-6342380Y-2455781D01*
G01X-6333490Y-2438001D01*
G01X-6333490Y-2420221D01*
G01X-6457950Y-2491341D02*
G01X-6457950Y-2429111D01*
G01X-6457950Y-2312779D02*
G01X-6449060Y-2330559D01*
G01X-6431280Y-2348339D01*
G01X-6404610Y-2357229D01*
G01X-6386830Y-2357229D01*
G01X-6360160Y-2348339D01*
G01X-6342380Y-2330559D01*
G01X-6333490Y-2312779D01*
G01X-6333490Y-2286109D01*
G01X-6342380Y-2268329D01*
G01X-6360160Y-2250549D01*
G01X-6386830Y-2241659D01*
G01X-6404610Y-2241659D01*
G01X-6431280Y-2250549D01*
G01X-6449060Y-2268329D01*
G01X-6457950Y-2286109D01*
G01X-6457950Y-2312779D01*
G01X-6457950Y-2178667D02*
G01X-6333490Y-2178667D01*
G01X-6422390Y-2178667D02*
G01X-6449060Y-2151997D01*
G01X-6457950Y-2134217D01*
G01X-6457950Y-2107547D01*
G01X-6449060Y-2089767D01*
G01X-6422390Y-2080877D01*
G01X-6333490Y-2080877D01*
G01X-6507480Y-4693087D02*
G01X-6320790Y-4693087D01*
G01X-6507480Y-4693087D02*
G01X-6507480Y-4613077D01*
G01X-6498590Y-4586407D01*
G01X-6489700Y-4577517D01*
G01X-6471920Y-4568627D01*
G01X-6454140Y-4568627D01*
G01X-6436360Y-4577517D01*
G01X-6427470Y-4586407D01*
G01X-6418580Y-4613077D01*
G01X-6418580Y-4693087D02*
G01X-6418580Y-4613077D01*
G01X-6409690Y-4586407D01*
G01X-6400800Y-4577517D01*
G01X-6383020Y-4568627D01*
G01X-6356350Y-4568627D01*
G01X-6338570Y-4577517D01*
G01X-6329680Y-4586407D01*
G01X-6320790Y-4613077D01*
G01X-6320790Y-4693087D01*
G01X-6445250Y-4505635D02*
G01X-6356350Y-4505635D01*
G01X-6329680Y-4496745D01*
G01X-6320790Y-4478965D01*
G01X-6320790Y-4452295D01*
G01X-6329680Y-4434515D01*
G01X-6356350Y-4407845D01*
G01X-6445250Y-4407845D02*
G01X-6320790Y-4407845D01*
G01X-6507480Y-4318183D02*
G01X-6356350Y-4318183D01*
G01X-6329680Y-4309293D01*
G01X-6320790Y-4291513D01*
G01X-6320790Y-4273733D01*
G01X-6445250Y-4344853D02*
G01X-6445250Y-4282623D01*
G01X-6507480Y-4184071D02*
G01X-6356350Y-4184071D01*
G01X-6329680Y-4175181D01*
G01X-6320790Y-4157401D01*
G01X-6320790Y-4139621D01*
G01X-6445250Y-4210741D02*
G01X-6445250Y-4148511D01*
G01X-6445250Y-4032179D02*
G01X-6436360Y-4049959D01*
G01X-6418580Y-4067739D01*
G01X-6391910Y-4076629D01*
G01X-6374130Y-4076629D01*
G01X-6347460Y-4067739D01*
G01X-6329680Y-4049959D01*
G01X-6320790Y-4032179D01*
G01X-6320790Y-4005509D01*
G01X-6329680Y-3987729D01*
G01X-6347460Y-3969949D01*
G01X-6374130Y-3961059D01*
G01X-6391910Y-3961059D01*
G01X-6418580Y-3969949D01*
G01X-6436360Y-3987729D01*
G01X-6445250Y-4005509D01*
G01X-6445250Y-4032179D01*
G01X-6445250Y-3898067D02*
G01X-6320790Y-3898067D01*
G01X-6409690Y-3898067D02*
G01X-6436360Y-3871397D01*
G01X-6445250Y-3853617D01*
G01X-6445250Y-3826947D01*
G01X-6436360Y-3809167D01*
G01X-6409690Y-3800277D01*
G01X-6320790Y-3800277D01*
G01X-4472940Y-3195320D02*
G01X-4472940Y-3382010D01*
G01X-4472940Y-3382010D02*
G01X-4366260Y-3382010D01*
G01X-4303268Y-3195320D02*
G01X-4303268Y-3382010D01*
G01X-4303268Y-3195320D02*
G01X-4187698Y-3195320D01*
G01X-4303268Y-3284220D02*
G01X-4232148Y-3284220D01*
G01X-4303268Y-3382010D02*
G01X-4187698Y-3382010D01*
G01X-4124706Y-3195320D02*
G01X-4124706Y-3382010D01*
G01X-4124706Y-3195320D02*
G01X-4062476Y-3195320D01*
G01X-4035806Y-3204210D01*
G01X-4018026Y-3221990D01*
G01X-4009136Y-3239770D01*
G01X-4000246Y-3266440D01*
G01X-4000246Y-3310890D01*
G01X-4009136Y-3337560D01*
G01X-4018026Y-3355340D01*
G01X-4035806Y-3373120D01*
G01X-4062476Y-3382010D01*
G01X-4124706Y-3382010D01*
G01X-5069840Y-1569720D02*
G01X-5069840Y-1756410D01*
G01X-5069840Y-1569720D02*
G01X-4989830Y-1569720D01*
G01X-4963160Y-1578610D01*
G01X-4954270Y-1587500D01*
G01X-4945380Y-1605280D01*
G01X-4945380Y-1623060D01*
G01X-4954270Y-1640840D01*
G01X-4963160Y-1649730D01*
G01X-4989830Y-1658620D01*
G01X-5069840Y-1658620D01*
G01X-5007610Y-1658620D02*
G01X-4945380Y-1756410D01*
G01X-4882388Y-1685290D02*
G01X-4775708Y-1685290D01*
G01X-4775708Y-1667510D01*
G01X-4784598Y-1649730D01*
G01X-4793488Y-1640840D01*
G01X-4811268Y-1631950D01*
G01X-4837938Y-1631950D01*
G01X-4855718Y-1640840D01*
G01X-4873498Y-1658620D01*
G01X-4882388Y-1685290D01*
G01X-4882388Y-1703070D01*
G01X-4873498Y-1729740D01*
G01X-4855718Y-1747520D01*
G01X-4837938Y-1756410D01*
G01X-4811268Y-1756410D01*
G01X-4793488Y-1747520D01*
G01X-4775708Y-1729740D01*
G01X-4614926Y-1658620D02*
G01X-4623816Y-1640840D01*
G01X-4650486Y-1631950D01*
G01X-4677156Y-1631950D01*
G01X-4703826Y-1640840D01*
G01X-4712716Y-1658620D01*
G01X-4703826Y-1676400D01*
G01X-4686046Y-1685290D01*
G01X-4641596Y-1694180D01*
G01X-4623816Y-1703070D01*
G01X-4614926Y-1720850D01*
G01X-4614926Y-1729740D01*
G01X-4623816Y-1747520D01*
G01X-4650486Y-1756410D01*
G01X-4677156Y-1756410D01*
G01X-4703826Y-1747520D01*
G01X-4712716Y-1729740D01*
G01X-4551934Y-1569720D02*
G01X-4543044Y-1578610D01*
G01X-4534154Y-1569720D01*
G01X-4543044Y-1560830D01*
G01X-4551934Y-1569720D01*
G01X-4543044Y-1631950D02*
G01X-4543044Y-1756410D01*
G01X-4373372Y-1658620D02*
G01X-4382262Y-1640840D01*
G01X-4408932Y-1631950D01*
G01X-4435602Y-1631950D01*
G01X-4462272Y-1640840D01*
G01X-4471162Y-1658620D01*
G01X-4462272Y-1676400D01*
G01X-4444492Y-1685290D01*
G01X-4400042Y-1694180D01*
G01X-4382262Y-1703070D01*
G01X-4373372Y-1720850D01*
G01X-4373372Y-1729740D01*
G01X-4382262Y-1747520D01*
G01X-4408932Y-1756410D01*
G01X-4435602Y-1756410D01*
G01X-4462272Y-1747520D01*
G01X-4471162Y-1729740D01*
G01X-4283710Y-1569720D02*
G01X-4283710Y-1720850D01*
G01X-4274820Y-1747520D01*
G01X-4257040Y-1756410D01*
G01X-4239260Y-1756410D01*
G01X-4310380Y-1631950D02*
G01X-4248150Y-1631950D01*
G01X-4131818Y-1631950D02*
G01X-4149598Y-1640840D01*
G01X-4167378Y-1658620D01*
G01X-4176268Y-1685290D01*
G01X-4176268Y-1703070D01*
G01X-4167378Y-1729740D01*
G01X-4149598Y-1747520D01*
G01X-4131818Y-1756410D01*
G01X-4105148Y-1756410D01*
G01X-4087368Y-1747520D01*
G01X-4069588Y-1729740D01*
G01X-4060698Y-1703070D01*
G01X-4060698Y-1685290D01*
G01X-4069588Y-1658620D01*
G01X-4087368Y-1640840D01*
G01X-4105148Y-1631950D01*
G01X-4131818Y-1631950D01*
G01X-3997706Y-1631950D02*
G01X-3997706Y-1756410D01*
G01X-3997706Y-1685290D02*
G01X-3988816Y-1658620D01*
G01X-3971036Y-1640840D01*
G01X-3953256Y-1631950D01*
G01X-3926586Y-1631950D01*
G01X-5400040Y-782320D02*
G01X-5400040Y-969010D01*
G01X-5400040Y-782320D02*
G01X-5320030Y-782320D01*
G01X-5293360Y-791210D01*
G01X-5284470Y-800100D01*
G01X-5275580Y-817880D01*
G01X-5275580Y-835660D01*
G01X-5284470Y-853440D01*
G01X-5293360Y-862330D01*
G01X-5320030Y-871220D01*
G01X-5400040Y-871220D01*
G01X-5337810Y-871220D02*
G01X-5275580Y-969010D01*
G01X-5212588Y-897890D02*
G01X-5105908Y-897890D01*
G01X-5105908Y-880110D01*
G01X-5114798Y-862330D01*
G01X-5123688Y-853440D01*
G01X-5141468Y-844550D01*
G01X-5168138Y-844550D01*
G01X-5185918Y-853440D01*
G01X-5203698Y-871220D01*
G01X-5212588Y-897890D01*
G01X-5212588Y-915670D01*
G01X-5203698Y-942340D01*
G01X-5185918Y-960120D01*
G01X-5168138Y-969010D01*
G01X-5141468Y-969010D01*
G01X-5123688Y-960120D01*
G01X-5105908Y-942340D01*
G01X-4945126Y-871220D02*
G01X-4954016Y-853440D01*
G01X-4980686Y-844550D01*
G01X-5007356Y-844550D01*
G01X-5034026Y-853440D01*
G01X-5042916Y-871220D01*
G01X-5034026Y-889000D01*
G01X-5016246Y-897890D01*
G01X-4971796Y-906780D01*
G01X-4954016Y-915670D01*
G01X-4945126Y-933450D01*
G01X-4945126Y-942340D01*
G01X-4954016Y-960120D01*
G01X-4980686Y-969010D01*
G01X-5007356Y-969010D01*
G01X-5034026Y-960120D01*
G01X-5042916Y-942340D01*
G01X-5400040Y-96520D02*
G01X-5400040Y-283210D01*
G01X-5400040Y-96520D02*
G01X-5320030Y-96520D01*
G01X-5293360Y-105410D01*
G01X-5284470Y-114300D01*
G01X-5275580Y-132080D01*
G01X-5275580Y-149860D01*
G01X-5284470Y-167640D01*
G01X-5293360Y-176530D01*
G01X-5320030Y-185420D01*
G01X-5400040Y-185420D01*
G01X-5337810Y-185420D02*
G01X-5275580Y-283210D01*
G01X-5212588Y-212090D02*
G01X-5105908Y-212090D01*
G01X-5105908Y-194310D01*
G01X-5114798Y-176530D01*
G01X-5123688Y-167640D01*
G01X-5141468Y-158750D01*
G01X-5168138Y-158750D01*
G01X-5185918Y-167640D01*
G01X-5203698Y-185420D01*
G01X-5212588Y-212090D01*
G01X-5212588Y-229870D01*
G01X-5203698Y-256540D01*
G01X-5185918Y-274320D01*
G01X-5168138Y-283210D01*
G01X-5141468Y-283210D01*
G01X-5123688Y-274320D01*
G01X-5105908Y-256540D01*
G01X-4945126Y-185420D02*
G01X-4954016Y-167640D01*
G01X-4980686Y-158750D01*
G01X-5007356Y-158750D01*
G01X-5034026Y-167640D01*
G01X-5042916Y-185420D01*
G01X-5034026Y-203200D01*
G01X-5016246Y-212090D01*
G01X-4971796Y-220980D01*
G01X-4954016Y-229870D01*
G01X-4945126Y-247650D01*
G01X-4945126Y-256540D01*
G01X-4954016Y-274320D01*
G01X-4980686Y-283210D01*
G01X-5007356Y-283210D01*
G01X-5034026Y-274320D01*
G01X-5042916Y-256540D01*
G36*
G01X1362594Y96067D02*
G01X1361836Y74097D01*
G01X1228503Y72582D01*
G01X1092139Y73339D01*
G01X1088351Y74097D01*
G01X1088351Y93036D01*
G01X1089109Y115764D01*
G01X1089867Y119552D01*
G01X1103503Y119552D01*
G01X1113541Y119930D01*
G01X1116382Y121067D01*
G01X1113352Y126370D01*
G01X1108806Y133188D01*
G01X1105018Y138491D01*
G01X1101988Y142279D01*
G01X1098958Y147582D01*
G01X1092897Y159703D01*
G01X1089867Y166521D01*
G01X1086836Y174855D01*
G01X1084564Y182430D01*
G01X1083806Y188491D01*
G01X1082291Y195309D01*
G01X1080776Y208188D01*
G01X1081533Y221824D01*
G01X1083048Y227885D01*
G01X1084564Y235461D01*
G01X1086836Y245309D01*
G01X1089867Y253643D01*
G01X1093655Y260461D01*
G01X1098200Y267279D01*
G01X1102745Y272582D01*
G01X1110321Y280158D01*
G01X1116382Y284703D01*
G01X1123958Y289249D01*
G01X1131533Y292279D01*
G01X1138352Y295309D01*
G01X1145927Y297582D01*
G01X1152745Y299097D01*
G01X1164867Y300612D01*
G01X1261079Y301370D01*
G01X1358806Y300612D01*
G01X1362594Y299855D01*
G01X1362594Y282430D01*
G01X1361836Y259703D01*
G01X1361079Y254400D01*
G01X1272442Y254400D01*
G01X1181533Y253643D01*
G01X1173958Y252885D01*
G01X1163351Y251370D01*
G01X1155776Y249097D01*
G01X1149715Y246824D01*
G01X1144412Y243794D01*
G01X1140624Y241521D01*
G01X1136079Y236976D01*
G01X1132291Y230915D01*
G01X1129261Y224855D01*
G01X1126988Y218794D01*
G01X1125473Y202127D01*
G01X1125473Y198339D01*
G01X1126230Y191521D01*
G01X1126988Y183946D01*
G01X1128503Y176370D01*
G01X1130776Y168794D01*
G01X1136836Y155158D01*
G01X1143655Y141521D01*
G01X1148200Y133946D01*
G01X1152745Y127127D01*
G01X1156533Y121824D01*
G01X1182670Y120120D01*
G01X1258049Y119552D01*
G01X1360321Y118036D01*
G01X1362026Y111786D01*
G01X1362594Y96067D01*
G37*
G36*
G01X1462594Y728642D02*
G01X1458806Y730158D01*
G01X1446685Y736218D01*
G01X1358049Y775612D01*
G01X1351988Y777885D01*
G01X1346685Y777885D01*
G01X1341382Y776370D01*
G01X1320170Y767279D01*
G01X1314109Y765006D01*
G01X1303503Y760461D01*
G01X1296685Y757431D01*
G01X1281533Y751370D01*
G01X1267897Y745309D01*
G01X1260321Y742279D01*
G01X1246685Y736218D01*
G01X1239109Y733188D01*
G01X1232291Y730158D01*
G01X1224715Y727127D01*
G01X1216382Y724097D01*
G01X1202745Y718036D01*
G01X1195170Y715006D01*
G01X1188351Y711976D01*
G01X1182291Y709703D01*
G01X1176988Y707430D01*
G01X1163351Y701370D01*
G01X1157291Y699097D01*
G01X1149715Y696067D01*
G01X1141382Y692279D01*
G01X1133806Y689249D01*
G01X1127746Y686976D01*
G01X1101230Y675612D01*
G01X1094412Y672582D01*
G01X1089867Y671067D01*
G01X1089867Y695309D01*
G01X1090624Y714059D01*
G01X1092897Y721824D01*
G01X1099715Y725612D01*
G01X1107291Y728642D01*
G01X1114109Y731673D01*
G01X1126230Y736218D01*
G01X1133049Y739249D01*
G01X1140624Y742279D01*
G01X1147442Y745309D01*
G01X1153503Y747582D01*
G01X1164109Y752127D01*
G01X1170170Y754400D01*
G01X1183806Y760461D01*
G01X1198957Y766521D01*
G01X1205776Y769552D01*
G01X1213351Y772582D01*
G01X1220170Y775612D01*
G01X1232291Y780158D01*
G01X1239109Y783188D01*
G01X1246685Y786218D01*
G01X1253503Y789249D01*
G01X1261079Y792279D01*
G01X1267897Y795309D01*
G01X1273958Y797582D01*
G01X1284564Y802127D01*
G01X1287026Y803264D01*
G01X1286836Y805158D01*
G01X1281533Y808946D01*
G01X1273958Y811976D01*
G01X1267139Y815006D01*
G01X1261079Y817279D01*
G01X1239867Y826370D01*
G01X1233806Y828642D01*
G01X1223200Y833188D01*
G01X1216382Y836218D01*
G01X1201230Y842279D01*
G01X1187594Y848339D01*
G01X1180018Y851370D01*
G01X1173200Y854400D01*
G01X1161079Y858945D01*
G01X1150473Y863491D01*
G01X1143655Y866521D01*
G01X1136079Y869552D01*
G01X1129261Y872582D01*
G01X1123200Y874855D01*
G01X1107291Y881673D01*
G01X1100473Y884703D01*
G01X1092897Y887734D01*
G01X1090624Y894362D01*
G01X1089867Y911218D01*
G01X1090624Y934703D01*
G01X1093655Y935461D01*
G01X1098200Y933188D01*
G01X1119412Y924097D01*
G01X1126230Y921067D01*
G01X1133806Y918037D01*
G01X1147442Y911976D01*
G01X1153503Y909703D01*
G01X1233049Y875612D01*
G01X1239867Y872582D01*
G01X1247443Y869552D01*
G01X1261079Y863491D01*
G01X1267139Y861218D01*
G01X1357291Y822582D01*
G01X1364109Y819552D01*
G01X1371685Y816521D01*
G01X1385321Y810461D01*
G01X1391382Y808188D01*
G01X1412594Y799097D01*
G01X1418655Y796824D01*
G01X1434564Y790006D01*
G01X1439109Y787734D01*
G01X1452745Y781673D01*
G01X1458806Y779400D01*
G01X1462594Y778643D01*
G01X1462594Y728642D01*
G37*
G36*
G01X1465624Y488491D02*
G01X1464867Y476370D01*
G01X1464109Y463491D01*
G01X1463351Y447582D01*
G01X1461836Y441521D01*
G01X1459564Y425612D01*
G01X1458048Y417279D01*
G01X1455776Y408188D01*
G01X1452745Y401370D01*
G01X1446685Y399097D01*
G01X1433048Y398340D01*
G01X1411836Y399097D01*
G01X1407291Y402127D01*
G01X1408048Y406673D01*
G01X1412594Y421824D01*
G01X1414867Y428643D01*
G01X1417139Y436218D01*
G01X1418655Y442279D01*
G01X1419412Y447582D01*
G01X1422442Y461218D01*
G01X1423200Y479400D01*
G01X1422442Y502127D01*
G01X1420927Y512734D01*
G01X1418655Y521824D01*
G01X1415624Y529400D01*
G01X1413352Y535461D01*
G01X1410321Y540764D01*
G01X1399715Y551370D01*
G01X1395927Y554400D01*
G01X1391382Y556673D01*
G01X1386079Y558946D01*
G01X1380018Y561218D01*
G01X1370927Y562733D01*
G01X1363352Y564249D01*
G01X1343655Y565006D01*
G01X1326230Y565006D01*
G01X1327745Y561976D01*
G01X1330776Y557430D01*
G01X1334564Y552127D01*
G01X1338351Y546067D01*
G01X1344412Y535461D01*
G01X1348958Y526370D01*
G01X1351230Y521067D01*
G01X1353503Y515006D01*
G01X1355018Y508946D01*
G01X1355776Y503643D01*
G01X1357291Y491521D01*
G01X1358049Y483188D01*
G01X1357291Y470309D01*
G01X1355776Y458188D01*
G01X1354261Y450612D01*
G01X1352745Y445309D01*
G01X1350473Y438491D01*
G01X1347442Y431673D01*
G01X1344412Y425612D01*
G01X1341382Y421067D01*
G01X1339109Y417279D01*
G01X1336079Y413491D01*
G01X1320927Y398340D01*
G01X1316382Y395309D01*
G01X1304261Y387734D01*
G01X1298200Y384703D01*
G01X1291382Y381673D01*
G01X1277745Y377127D01*
G01X1264109Y374097D01*
G01X1255776Y372582D01*
G01X1248200Y371824D01*
G01X1226230Y371067D01*
G01X1204260Y371824D01*
G01X1196685Y372582D01*
G01X1186836Y374097D01*
G01X1178503Y376370D01*
G01X1166382Y379400D01*
G01X1160321Y381673D01*
G01X1155018Y383946D01*
G01X1148958Y386976D01*
G01X1142139Y390764D01*
G01X1136836Y393794D01*
G01X1126230Y401370D01*
G01X1120927Y405915D01*
G01X1114867Y411218D01*
G01X1111079Y415764D01*
G01X1107291Y419552D01*
G01X1103503Y424097D01*
G01X1095927Y436218D01*
G01X1092897Y442279D01*
G01X1086836Y455915D01*
G01X1085321Y461976D01*
G01X1083806Y467279D01*
G01X1082291Y474855D01*
G01X1081533Y482430D01*
G01X1080776Y489249D01*
G01X1081533Y496067D01*
G01X1082233Y505158D01*
G01X1123200Y505158D01*
G01X1123958Y491521D01*
G01X1124715Y484703D01*
G01X1126230Y477127D01*
G01X1128503Y468794D01*
G01X1132291Y459703D01*
G01X1136836Y452885D01*
G01X1140624Y448339D01*
G01X1148958Y440006D01*
G01X1155018Y435461D01*
G01X1161836Y430915D01*
G01X1168655Y427885D01*
G01X1174715Y425612D01*
G01X1181533Y423340D01*
G01X1187594Y421824D01*
G01X1199715Y420309D01*
G01X1220170Y418037D01*
G01X1233806Y419552D01*
G01X1245170Y420309D01*
G01X1254261Y421824D01*
G01X1260321Y422582D01*
G01X1266382Y424097D01*
G01X1272442Y426370D01*
G01X1280018Y428643D01*
G01X1286079Y431673D01*
G01X1291382Y434703D01*
G01X1295927Y438491D01*
G01X1303503Y446067D01*
G01X1306533Y450612D01*
G01X1311079Y461218D01*
G01X1312594Y466521D01*
G01X1312594Y466521D01*
G01X1313351Y470309D01*
G01X1314109Y483188D01*
G01X1313351Y497582D01*
G01X1311836Y509703D01*
G01X1310321Y515764D01*
G01X1308048Y524097D01*
G01X1305018Y532430D01*
G01X1295170Y552127D01*
G01X1291382Y557430D01*
G01X1288352Y561976D01*
G01X1268655Y564249D01*
G01X1212594Y565006D01*
G01X1156723Y564438D01*
G01X1137594Y562733D01*
G01X1135321Y558188D01*
G01X1133049Y552885D01*
G01X1130776Y546824D01*
G01X1126230Y530158D01*
G01X1124715Y524097D01*
G01X1123958Y518794D01*
G01X1123200Y505158D01*
G01X1082233Y505158D01*
G01X1082291Y505915D01*
G01X1083048Y517279D01*
G01X1085321Y526370D01*
G01X1088351Y535461D01*
G01X1092897Y547582D01*
G01X1095927Y553643D01*
G01X1098200Y558946D01*
G01X1097442Y564249D01*
G01X1092139Y567279D01*
G01X1088351Y568036D01*
G01X1088351Y586218D01*
G01X1089109Y608188D01*
G01X1089867Y611976D01*
G01X1209564Y611976D01*
G01X1331533Y611218D01*
G01X1343655Y610461D01*
G01X1358806Y609703D01*
G01X1366382Y608188D01*
G01X1373200Y607430D01*
G01X1380018Y605915D01*
G01X1395170Y601370D01*
G01X1401230Y599097D01*
G01X1408806Y596067D01*
G01X1416382Y591521D01*
G01X1423200Y586976D01*
G01X1428503Y583188D01*
G01X1439867Y571824D01*
G01X1447442Y561218D01*
G01X1450473Y555915D01*
G01X1453503Y549855D01*
G01X1458048Y537733D01*
G01X1460321Y530915D01*
G01X1461836Y523340D01*
G01X1463351Y517279D01*
G01X1464867Y502127D01*
G01X1465624Y488491D01*
G37*
G36*
G01X1362594Y-357721D02*
G01X1361836Y-378933D01*
G01X1171685Y-380448D01*
G01X982291Y-380448D01*
G01X982291Y-360751D01*
G01X983049Y-337267D01*
G01X983806Y-333479D01*
G01X1050473Y-333479D01*
G01X1100283Y-333100D01*
G01X1116382Y-331964D01*
G01X1113352Y-326661D01*
G01X1105776Y-316054D01*
G01X1101988Y-309994D01*
G01X1099715Y-305448D01*
G01X1097442Y-301661D01*
G01X1094412Y-296358D01*
G01X1091382Y-290297D01*
G01X1086836Y-278176D01*
G01X1083806Y-267570D01*
G01X1082291Y-256964D01*
G01X1081533Y-246357D01*
G01X1081533Y-242569D01*
G01X1082291Y-231206D01*
G01X1083806Y-218327D01*
G01X1086079Y-210751D01*
G01X1088351Y-203933D01*
G01X1091382Y-197873D01*
G01X1095927Y-190297D01*
G01X1101230Y-182721D01*
G01X1107291Y-175903D01*
G01X1114867Y-170600D01*
G01X1121685Y-166055D01*
G01X1128503Y-162267D01*
G01X1136079Y-159236D01*
G01X1142139Y-156964D01*
G01X1147442Y-156206D01*
G01X1153503Y-154691D01*
G01X1166382Y-153176D01*
G01X1178503Y-152418D01*
G01X1269412Y-151661D01*
G01X1360321Y-153176D01*
G01X1362026Y-158479D01*
G01X1362594Y-171358D01*
G01X1361836Y-193327D01*
G01X1361079Y-198630D01*
G01X1275473Y-198630D01*
G01X1187594Y-199388D01*
G01X1180776Y-200145D01*
G01X1170927Y-200903D01*
G01X1160321Y-203176D01*
G01X1152745Y-205448D01*
G01X1147442Y-207721D01*
G01X1142897Y-210751D01*
G01X1139109Y-213782D01*
G01X1135321Y-217570D01*
G01X1132291Y-222115D01*
G01X1129261Y-228933D01*
G01X1126988Y-238782D01*
G01X1125473Y-249388D01*
G01X1125473Y-258479D01*
G01X1128503Y-276661D01*
G01X1130776Y-284994D01*
G01X1133806Y-292570D01*
G01X1136836Y-299388D01*
G01X1142897Y-309994D01*
G01X1146685Y-317570D01*
G01X1151988Y-325145D01*
G01X1155776Y-331206D01*
G01X1181533Y-332910D01*
G01X1333427Y-334047D01*
G01X1360321Y-335751D01*
G01X1362026Y-342380D01*
G01X1362594Y-357721D01*
G37*
G36*
G01X1042897Y-66812D02*
G01X1023200Y-66812D01*
G01X999715Y-66054D01*
G01X995927Y-65297D01*
G01X995927Y-43327D01*
G01X996685Y-17570D01*
G01X997443Y-13782D01*
G01X1016382Y-13782D01*
G01X1039109Y-14539D01*
G01X1042897Y-15297D01*
G01X1042897Y-66812D01*
G37*
G36*
G01X1362594Y-579691D02*
G01X1361836Y-602418D01*
G01X1205018Y-603176D01*
G01X1045170Y-603933D01*
G01X1041382Y-604691D01*
G01X1041382Y-733479D01*
G01X1021685Y-733479D01*
G01X999715Y-731963D01*
G01X998011Y-694085D01*
G01X997443Y-583479D01*
G01X998200Y-431206D01*
G01X998958Y-425903D01*
G01X1041382Y-425903D01*
G01X1041382Y-486509D01*
G01X1042139Y-550903D01*
G01X1042897Y-554691D01*
G01X1200473Y-554691D01*
G01X1360321Y-556206D01*
G01X1362026Y-562835D01*
G01X1362594Y-579691D01*
G37*
G36*
G01X1367140Y-797873D02*
G01X1366382Y-813024D01*
G01X1364867Y-820600D01*
G01X1363352Y-829691D01*
G01X1361079Y-836509D01*
G01X1358049Y-843327D01*
G01X1355018Y-849388D01*
G01X1351230Y-854691D01*
G01X1347442Y-859236D01*
G01X1342139Y-865297D01*
G01X1334564Y-870600D01*
G01X1328503Y-874388D01*
G01X1316382Y-878933D01*
G01X1309564Y-881206D01*
G01X1301230Y-882721D01*
G01X1295170Y-884236D01*
G01X1211079Y-884994D01*
G01X1129261Y-884994D01*
G01X1129261Y-894842D01*
G01X1128503Y-909994D01*
G01X1127746Y-915297D01*
G01X1111836Y-915297D01*
G01X1092139Y-914539D01*
G01X1088351Y-913782D01*
G01X1088351Y-884994D01*
G01X1051988Y-884994D01*
G01X1012594Y-883479D01*
G01X1010321Y-877797D01*
G01X1009564Y-863782D01*
G01X1010321Y-841812D01*
G01X1011079Y-838024D01*
G01X1088351Y-838024D01*
G01X1088351Y-794842D01*
G01X1089109Y-747873D01*
G01X1089867Y-744085D01*
G01X1107291Y-744085D01*
G01X1126988Y-745600D01*
G01X1128692Y-756774D01*
G01X1129261Y-787267D01*
G01X1128503Y-832721D01*
G01X1127746Y-838024D01*
G01X1202745Y-838024D01*
G01X1283048Y-837267D01*
G01X1292139Y-835751D01*
G01X1300473Y-833479D01*
G01X1308806Y-829691D01*
G01X1315624Y-824388D01*
G01X1320170Y-819085D01*
G01X1323200Y-814539D01*
G01X1324715Y-809236D01*
G01X1325473Y-803933D01*
G01X1326230Y-790297D01*
G01X1325473Y-773630D01*
G01X1323957Y-766055D01*
G01X1322442Y-759994D01*
G01X1320170Y-753176D01*
G01X1318654Y-747115D01*
G01X1323768Y-744842D01*
G01X1339109Y-744085D01*
G01X1354639Y-744842D01*
G01X1360321Y-747115D01*
G01X1362594Y-753176D01*
G01X1364109Y-760751D01*
G01X1366382Y-781206D01*
G01X1367140Y-797873D01*
G37*
G36*
G01X1362594Y-40297D02*
G01X1361836Y-62267D01*
G01X1228503Y-63782D01*
G01X1092139Y-63024D01*
G01X1088351Y-62267D01*
G01X1088351Y-43327D01*
G01X1089109Y-20600D01*
G01X1089867Y-16812D01*
G01X1223958Y-16812D01*
G01X1360321Y-18327D01*
G01X1362026Y-24577D01*
G01X1362594Y-40297D01*
G37*
G36*
G01X1362594Y-1809994D02*
G01X1361836Y-1924388D01*
G01X1180776Y-1925903D01*
G01X1045170Y-1925335D01*
G01X998958Y-1923630D01*
G01X997443Y-1902418D01*
G01X998958Y-1879691D01*
G01X1000473Y-1875903D01*
G01X1318654Y-1875903D01*
G01X1318654Y-1695600D01*
G01X1336836Y-1695600D01*
G01X1358806Y-1696358D01*
G01X1362594Y-1697115D01*
G01X1362594Y-1809994D01*
G37*
G36*
G01X1362594Y-2742570D02*
G01X1361836Y-2765297D01*
G01X1205018Y-2766812D01*
G01X1045170Y-2767570D01*
G01X1041382Y-2768327D01*
G01X1041382Y-2894085D01*
G01X1023200Y-2894085D01*
G01X1001230Y-2893327D01*
G01X997443Y-2892570D01*
G01X997443Y-2747115D01*
G01X998200Y-2594842D01*
G01X998958Y-2588024D01*
G01X1041382Y-2588024D01*
G01X1041382Y-2650903D01*
G01X1042897Y-2716055D01*
G01X1083238Y-2717759D01*
G01X1201230Y-2718327D01*
G01X1360321Y-2719842D01*
G01X1362026Y-2726282D01*
G01X1362594Y-2742570D01*
G37*
G36*
G01X1362594Y-2520600D02*
G01X1361079Y-2542570D01*
G01X1174715Y-2544085D01*
G01X986079Y-2543327D01*
G01X982291Y-2542570D01*
G01X982291Y-2497115D01*
G01X1049715Y-2497115D01*
G01X1100094Y-2496547D01*
G01X1116382Y-2494842D01*
G01X1112594Y-2488782D01*
G01X1107291Y-2481206D01*
G01X1103503Y-2475903D01*
G01X1100473Y-2470600D01*
G01X1092897Y-2455448D01*
G01X1088351Y-2444842D01*
G01X1086079Y-2438024D01*
G01X1083806Y-2430449D01*
G01X1082291Y-2419843D01*
G01X1081533Y-2409994D01*
G01X1081533Y-2406206D01*
G01X1082291Y-2396358D01*
G01X1083048Y-2385751D01*
G01X1084564Y-2378933D01*
G01X1086836Y-2370600D01*
G01X1089867Y-2363782D01*
G01X1092897Y-2357721D01*
G01X1096685Y-2351661D01*
G01X1100473Y-2346358D01*
G01X1108049Y-2338782D01*
G01X1113352Y-2334236D01*
G01X1119412Y-2330448D01*
G01X1124715Y-2327418D01*
G01X1138352Y-2321358D01*
G01X1145927Y-2319085D01*
G01X1152745Y-2317570D01*
G01X1166382Y-2316055D01*
G01X1183048Y-2314539D01*
G01X1271685Y-2313782D01*
G01X1337026Y-2314350D01*
G01X1360321Y-2316055D01*
G01X1362026Y-2321736D01*
G01X1362594Y-2334236D01*
G01X1361836Y-2355448D01*
G01X1361079Y-2360751D01*
G01X1280018Y-2360751D01*
G01X1196685Y-2361509D01*
G01X1183048Y-2363024D01*
G01X1167897Y-2364539D01*
G01X1162594Y-2365297D01*
G01X1156533Y-2366812D01*
G01X1150473Y-2369085D01*
G01X1145927Y-2371357D01*
G01X1141382Y-2374388D01*
G01X1136079Y-2379691D01*
G01X1132291Y-2384994D01*
G01X1129261Y-2391055D01*
G01X1126988Y-2400903D01*
G01X1125473Y-2411509D01*
G01X1125473Y-2422115D01*
G01X1126988Y-2429691D01*
G01X1127746Y-2434994D01*
G01X1129261Y-2443327D01*
G01X1132291Y-2451661D01*
G01X1135321Y-2458479D01*
G01X1145170Y-2478176D01*
G01X1148958Y-2484236D01*
G01X1151988Y-2488024D01*
G01X1155776Y-2493327D01*
G01X1158048Y-2497115D01*
G01X1258049Y-2497115D01*
G01X1360321Y-2498630D01*
G01X1362026Y-2504880D01*
G01X1362594Y-2520600D01*
G37*
G36*
G01X1368655Y-2103933D02*
G01X1367897Y-2114539D01*
G01X1367140Y-2119085D01*
G01X1366382Y-2129691D01*
G01X1364867Y-2138782D01*
G01X1364109Y-2144085D01*
G01X1362594Y-2150145D01*
G01X1358049Y-2163782D01*
G01X1355018Y-2171358D01*
G01X1346685Y-2188024D01*
G01X1343655Y-2193327D01*
G01X1340624Y-2197115D01*
G01X1333048Y-2206206D01*
G01X1323957Y-2215297D01*
G01X1311836Y-2224388D01*
G01X1304261Y-2228933D01*
G01X1292139Y-2234994D01*
G01X1283048Y-2238024D01*
G01X1272442Y-2241054D01*
G01X1264867Y-2243327D01*
G01X1254261Y-2244842D01*
G01X1230776Y-2245600D01*
G01X1202745Y-2244842D01*
G01X1192139Y-2243327D01*
G01X1180018Y-2240297D01*
G01X1171685Y-2238024D01*
G01X1164867Y-2235751D01*
G01X1158806Y-2233479D01*
G01X1139109Y-2223630D01*
G01X1128503Y-2216054D01*
G01X1123200Y-2211509D01*
G01X1108049Y-2196358D01*
G01X1105018Y-2192570D01*
G01X1098958Y-2183479D01*
G01X1095927Y-2178176D01*
G01X1092897Y-2172115D01*
G01X1090624Y-2166055D01*
G01X1088351Y-2159236D01*
G01X1086079Y-2153933D01*
G01X1084564Y-2149388D01*
G01X1083048Y-2138782D01*
G01X1081533Y-2125145D01*
G01X1080776Y-2116054D01*
G01X1081155Y-2111509D01*
G01X1120170Y-2111509D01*
G01X1120927Y-2125145D01*
G01X1122443Y-2135751D01*
G01X1123958Y-2143327D01*
G01X1126230Y-2151661D01*
G01X1129261Y-2158479D01*
G01X1132291Y-2163024D01*
G01X1135321Y-2166812D01*
G01X1138352Y-2171358D01*
G01X1142897Y-2175903D01*
G01X1147442Y-2179691D01*
G01X1152745Y-2184236D01*
G01X1159564Y-2188782D01*
G01X1167139Y-2192570D01*
G01X1176988Y-2195600D01*
G01X1187594Y-2197873D01*
G01X1187594Y-2197873D01*
G01X1193654Y-2197873D01*
G01X1194412Y-2120600D01*
G01X1194412Y-2044085D01*
G01X1190624Y-2044085D01*
G01X1181533Y-2044842D01*
G01X1172442Y-2046358D01*
G01X1164867Y-2047873D01*
G01X1158806Y-2050146D01*
G01X1152745Y-2053176D01*
G01X1145927Y-2056964D01*
G01X1139867Y-2060752D01*
G01X1135321Y-2065297D01*
G01X1131533Y-2069842D01*
G01X1127746Y-2075145D01*
G01X1124715Y-2083479D01*
G01X1122443Y-2090297D01*
G01X1120927Y-2102418D01*
G01X1120170Y-2111509D01*
G01X1081155Y-2111509D01*
G01X1081533Y-2106964D01*
G01X1082291Y-2100145D01*
G01X1083048Y-2091812D01*
G01X1084564Y-2082721D01*
G01X1086079Y-2075145D01*
G01X1087594Y-2069842D01*
G01X1089867Y-2064539D01*
G01X1092897Y-2057721D01*
G01X1096685Y-2049388D01*
G01X1101230Y-2042570D01*
G01X1105018Y-2037267D01*
G01X1117897Y-2024388D01*
G01X1123958Y-2019842D01*
G01X1129261Y-2016055D01*
G01X1136836Y-2012267D01*
G01X1145170Y-2008479D01*
G01X1152745Y-2005448D01*
G01X1176988Y-1999388D01*
G01X1199715Y-1997873D01*
G01X1212594Y-1997115D01*
G01X1226988Y-1997873D01*
G01X1230776Y-1998630D01*
G01X1230776Y-2097873D01*
G01X1231344Y-2172494D01*
G01X1233049Y-2197873D01*
G01X1242140Y-2197873D01*
G01X1254261Y-2196358D01*
G01X1261836Y-2194842D01*
G01X1267897Y-2193327D01*
G01X1275473Y-2191055D01*
G01X1283048Y-2187267D01*
G01X1295170Y-2179691D01*
G01X1300473Y-2175146D01*
G01X1308048Y-2167570D01*
G01X1311079Y-2163782D01*
G01X1320170Y-2147873D01*
G01X1323200Y-2138782D01*
G01X1325473Y-2131206D01*
G01X1326988Y-2119085D01*
G01X1327745Y-2103933D01*
G01X1326988Y-2088782D01*
G01X1325473Y-2078176D01*
G01X1323957Y-2070600D01*
G01X1321685Y-2060752D01*
G01X1318654Y-2052418D01*
G01X1312594Y-2037267D01*
G01X1309564Y-2030449D01*
G01X1306533Y-2025145D01*
G01X1303503Y-2019085D01*
G01X1298958Y-2011509D01*
G01X1295927Y-2005448D01*
G01X1301230Y-2003744D01*
G01X1317139Y-2003176D01*
G01X1342139Y-2003933D01*
G01X1345359Y-2005638D01*
G01X1347442Y-2009236D01*
G01X1353503Y-2024388D01*
G01X1359564Y-2044085D01*
G01X1364867Y-2059994D01*
G01X1366382Y-2072115D01*
G01X1367897Y-2091812D01*
G01X1368655Y-2103933D01*
G37*
G36*
G01X1362026Y-1194274D02*
G01X1360321Y-1200903D01*
G01X1312973Y-1202607D01*
G01X1175473Y-1203176D01*
G01X987594Y-1202418D01*
G01X982291Y-1201661D01*
G01X982291Y-1180448D01*
G01X983806Y-1156964D01*
G01X1000283Y-1155259D01*
G01X1046685Y-1154691D01*
G01X1110321Y-1155449D01*
G01X1114109Y-1155449D01*
G01X1114867Y-1152418D01*
G01X1111836Y-1146358D01*
G01X1107291Y-1139539D01*
G01X1103503Y-1134236D01*
G01X1097442Y-1123630D01*
G01X1091382Y-1111509D01*
G01X1086836Y-1099388D01*
G01X1083806Y-1088782D01*
G01X1082291Y-1066055D01*
G01X1083048Y-1043327D01*
G01X1084564Y-1037267D01*
G01X1086836Y-1028933D01*
G01X1090624Y-1020600D01*
G01X1094412Y-1014539D01*
G01X1096685Y-1009994D01*
G01X1099715Y-1006206D01*
G01X1104261Y-1000903D01*
G01X1109564Y-995600D01*
G01X1114109Y-992570D01*
G01X1119412Y-988782D01*
G01X1126230Y-984994D01*
G01X1141382Y-978933D01*
G01X1155018Y-975903D01*
G01X1168655Y-974388D01*
G01X1181533Y-973630D01*
G01X1270927Y-972873D01*
G01X1360321Y-974388D01*
G01X1362026Y-979691D01*
G01X1362594Y-992570D01*
G01X1361836Y-1014539D01*
G01X1361079Y-1019842D01*
G01X1276230Y-1019842D01*
G01X1189109Y-1020600D01*
G01X1172442Y-1022115D01*
G01X1166382Y-1023630D01*
G01X1158806Y-1025145D01*
G01X1151230Y-1027418D01*
G01X1145170Y-1030449D01*
G01X1140624Y-1033479D01*
G01X1136836Y-1037267D01*
G01X1133049Y-1042570D01*
G01X1129261Y-1050145D01*
G01X1126988Y-1059994D01*
G01X1125473Y-1070600D01*
G01X1125473Y-1079691D01*
G01X1128503Y-1097873D01*
G01X1130018Y-1103933D01*
G01X1132291Y-1109994D01*
G01X1135321Y-1117570D01*
G01X1142897Y-1132721D01*
G01X1146685Y-1138782D01*
G01X1155776Y-1152418D01*
G01X1157859Y-1155070D01*
G01X1159564Y-1155449D01*
G01X1258806Y-1154691D01*
G01X1332859Y-1155259D01*
G01X1359564Y-1156964D01*
G01X1361836Y-1163592D01*
G01X1362594Y-1178933D01*
G01X1362026Y-1194274D01*
G37*
G36*
G01X1042897Y-1653176D02*
G01X995927Y-1653176D01*
G01X995927Y-1628933D01*
G01X997443Y-1602418D01*
G01X1003124Y-1600714D01*
G01X1017139Y-1600145D01*
G01X1039109Y-1600903D01*
G01X1042897Y-1601660D01*
G01X1042897Y-1653176D01*
G37*
G36*
G01X1465624Y-1414539D02*
G01X1464867Y-1426661D01*
G01X1464109Y-1439539D01*
G01X1463351Y-1455448D01*
G01X1461836Y-1461509D01*
G01X1459564Y-1477418D01*
G01X1458048Y-1485751D01*
G01X1455776Y-1494842D01*
G01X1452745Y-1501660D01*
G01X1446685Y-1503933D01*
G01X1433048Y-1504691D01*
G01X1411836Y-1503933D01*
G01X1407291Y-1500903D01*
G01X1408048Y-1496357D01*
G01X1412594Y-1481206D01*
G01X1414867Y-1474388D01*
G01X1417139Y-1466812D01*
G01X1418655Y-1460751D01*
G01X1419412Y-1455448D01*
G01X1422442Y-1441812D01*
G01X1423200Y-1421358D01*
G01X1422442Y-1400903D01*
G01X1421685Y-1394842D01*
G01X1420170Y-1386509D01*
G01X1417897Y-1379691D01*
G01X1415624Y-1373630D01*
G01X1412594Y-1366812D01*
G01X1409564Y-1362267D01*
G01X1405018Y-1356964D01*
G01X1399715Y-1351660D01*
G01X1395927Y-1348630D01*
G01X1391382Y-1346357D01*
G01X1386079Y-1344085D01*
G01X1380018Y-1341812D01*
G01X1370927Y-1340297D01*
G01X1363352Y-1338782D01*
G01X1343655Y-1338024D01*
G01X1326230Y-1338024D01*
G01X1327745Y-1341054D01*
G01X1330776Y-1345600D01*
G01X1334564Y-1350903D01*
G01X1338351Y-1356964D01*
G01X1344412Y-1367570D01*
G01X1348958Y-1376660D01*
G01X1351230Y-1381964D01*
G01X1353503Y-1388024D01*
G01X1355018Y-1394085D01*
G01X1355776Y-1399388D01*
G01X1357291Y-1411509D01*
G01X1358049Y-1420600D01*
G01X1357291Y-1432721D01*
G01X1355776Y-1444842D01*
G01X1353503Y-1455448D01*
G01X1348958Y-1467570D01*
G01X1345927Y-1474388D01*
G01X1339867Y-1484994D01*
G01X1336079Y-1489539D01*
G01X1323200Y-1502418D01*
G01X1318654Y-1506206D01*
G01X1309564Y-1512267D01*
G01X1304261Y-1515297D01*
G01X1295170Y-1519842D01*
G01X1287594Y-1522873D01*
G01X1277745Y-1525903D01*
G01X1269412Y-1528176D01*
G01X1263352Y-1529691D01*
G01X1248200Y-1531206D01*
G01X1226230Y-1531964D01*
G01X1204260Y-1531206D01*
G01X1195927Y-1530449D01*
G01X1186836Y-1528933D01*
G01X1178503Y-1526661D01*
G01X1169412Y-1524388D01*
G01X1157291Y-1519842D01*
G01X1150473Y-1516812D01*
G01X1144412Y-1513782D01*
G01X1139109Y-1511509D01*
G01X1135321Y-1508479D01*
G01X1124715Y-1500903D01*
G01X1120927Y-1497873D01*
G01X1115624Y-1493327D01*
G01X1111079Y-1487267D01*
G01X1107291Y-1483479D01*
G01X1103503Y-1478933D01*
G01X1095927Y-1466812D01*
G01X1092897Y-1460751D01*
G01X1086836Y-1447115D01*
G01X1085321Y-1441055D01*
G01X1083806Y-1435752D01*
G01X1082291Y-1428176D01*
G01X1081533Y-1420600D01*
G01X1080776Y-1413782D01*
G01X1081533Y-1406964D01*
G01X1082233Y-1397873D01*
G01X1123200Y-1397873D01*
G01X1123958Y-1411509D01*
G01X1124715Y-1418327D01*
G01X1126230Y-1425903D01*
G01X1130776Y-1441055D01*
G01X1136836Y-1450145D01*
G01X1140624Y-1454691D01*
G01X1145927Y-1459994D01*
G01X1152745Y-1466054D01*
G01X1158048Y-1469842D01*
G01X1161836Y-1472115D01*
G01X1166382Y-1474388D01*
G01X1178503Y-1478933D01*
G01X1187594Y-1481206D01*
G01X1196685Y-1482721D01*
G01X1213351Y-1484236D01*
G01X1220170Y-1484994D01*
G01X1226988Y-1484236D01*
G01X1235321Y-1483479D01*
G01X1245170Y-1482721D01*
G01X1263352Y-1479691D01*
G01X1271685Y-1477418D01*
G01X1280018Y-1474388D01*
G01X1286079Y-1471357D01*
G01X1291382Y-1468327D01*
G01X1295927Y-1464539D01*
G01X1303503Y-1456964D01*
G01X1306533Y-1452418D01*
G01X1311079Y-1441812D01*
G01X1312594Y-1436509D01*
G01X1312594Y-1436509D01*
G01X1313351Y-1432721D01*
G01X1314109Y-1419842D01*
G01X1313351Y-1405449D01*
G01X1311836Y-1393327D01*
G01X1310321Y-1387267D01*
G01X1308048Y-1378933D01*
G01X1305018Y-1370600D01*
G01X1295170Y-1350903D01*
G01X1291382Y-1345600D01*
G01X1288352Y-1341054D01*
G01X1268655Y-1338782D01*
G01X1212594Y-1338024D01*
G01X1156723Y-1338592D01*
G01X1137594Y-1340297D01*
G01X1135321Y-1344842D01*
G01X1133049Y-1350145D01*
G01X1130776Y-1356206D01*
G01X1126230Y-1372873D01*
G01X1124715Y-1378933D01*
G01X1123958Y-1384236D01*
G01X1123200Y-1397873D01*
G01X1082233Y-1397873D01*
G01X1082291Y-1397115D01*
G01X1083048Y-1385751D01*
G01X1085321Y-1376660D01*
G01X1088351Y-1367570D01*
G01X1092897Y-1355448D01*
G01X1095927Y-1349388D01*
G01X1098200Y-1344085D01*
G01X1097442Y-1338782D01*
G01X1092139Y-1335751D01*
G01X1088351Y-1334994D01*
G01X1088351Y-1316812D01*
G01X1089109Y-1294842D01*
G01X1089867Y-1291055D01*
G01X1209564Y-1291055D01*
G01X1331533Y-1291812D01*
G01X1343655Y-1292570D01*
G01X1358806Y-1293327D01*
G01X1366382Y-1294842D01*
G01X1373200Y-1295600D01*
G01X1380018Y-1297115D01*
G01X1385321Y-1298630D01*
G01X1391382Y-1300145D01*
G01X1397442Y-1302418D01*
G01X1408048Y-1306964D01*
G01X1414109Y-1309994D01*
G01X1419412Y-1313782D01*
G01X1428503Y-1319842D01*
G01X1439867Y-1331206D01*
G01X1447442Y-1341812D01*
G01X1450473Y-1347115D01*
G01X1453503Y-1353176D01*
G01X1458048Y-1365297D01*
G01X1460321Y-1372115D01*
G01X1461836Y-1379691D01*
G01X1463351Y-1385751D01*
G01X1464867Y-1400903D01*
G01X1465624Y-1414539D01*
G37*
G36*
G01X1362594Y-1626660D02*
G01X1361836Y-1648630D01*
G01X1228503Y-1650145D01*
G01X1092139Y-1649388D01*
G01X1088351Y-1648630D01*
G01X1088351Y-1629691D01*
G01X1089109Y-1606964D01*
G01X1089867Y-1603176D01*
G01X1223958Y-1603176D01*
G01X1360321Y-1604691D01*
G01X1362026Y-1610941D01*
G01X1362594Y-1626660D01*
G37*
G04 Text End*

G04 Pad Start*
G54D11*
G01X-5775808Y-4453699D03*
G01X-7025792Y-4453699D03*
G01X-5775808Y-3953700D03*
G01X-7025792Y-3953700D03*
G01X-5813908Y-1189799D03*
G01X-7063892Y-1189799D03*
G01X-5813908Y-689800D03*
G01X-7063892Y-689800D03*
G01X-5788508Y-2777299D03*
G01X-7038492Y-2777299D03*
G01X-5788508Y-2277300D03*
G01X-7038492Y-2277300D03*
G54D12*
G01X-4829200Y-4146115D03*
G01X-3469182Y-3906136D03*
G54D13*
G01X-4149191Y-4026126D03*
G54D14*
G01X-2666995Y3914800D03*
G01X-2412995Y3914800D03*
G01X-2158995Y3914800D03*
G01X-1904995Y3914800D03*
G01X-2666995Y-3285211D03*
G01X-2146295Y-3285211D03*
G01X-2285995Y2214803D03*
G01X-2285995Y-1885214D03*
G01X-901695Y3914800D03*
G01X-647695Y3914800D03*
G01X-393695Y3914800D03*
G01X-139695Y3914800D03*
G01X-901695Y-3285211D03*
G01X-380995Y-3285211D03*
G01X-520695Y2214803D03*
G01X-520695Y-1885214D03*
G54D15*
G01X-5041900Y-520700D03*
G01X-4141902Y-520700D03*
G01X-5054600Y-1219200D03*
G01X-4154602Y-1219200D03*
G01X-5029200Y-2019300D03*
G01X-4129202Y-2019300D03*
G54D17*
G01X-6832600Y4114800D03*
G54D14*
G01X-6832600Y3860800D03*
G01X-6832600Y3352800D03*
G01X-6832600Y3098800D03*
G01X-6832600Y2844800D03*
G01X-6832600Y2590800D03*
G01X-6832600Y2336800D03*
G01X-6832600Y2082800D03*
G01X-6832600Y1828800D03*
G01X-6832600Y1574800D03*
G01X-6832600Y1320800D03*
G01X-5308600Y1320800D03*
G01X-5308600Y1574800D03*
G01X-5308600Y1828800D03*
G01X-5308600Y2082800D03*
G01X-5308600Y2336800D03*
G01X-5308600Y2590800D03*
G01X-5308600Y2844800D03*
G01X-5308600Y3098800D03*
G01X-5308600Y3352800D03*
G01X-5308600Y3606800D03*
G01X-5308600Y3860800D03*
G01X-5308600Y4114800D03*
G01X-6832600Y3606800D03*
G54D18*
G01X-7594600Y3924300D03*
G01X977900Y3924300D03*
G01X939800Y-4686300D03*
G01X-4432300Y-4953000D03*
G04 Pad End*

G04 Track Start*
G54D19*
G01X-2412995Y3914800D02*
G01X-3990995Y2336800D01*
G01X-5308600Y2336800D01*
G01X-647695Y3914800D02*
G01X-2237903Y2324592D01*
G01X-3939703Y2324592D01*
G01X-4041800Y2222495D01*
G01X-5346695Y2222495D01*
G01X-5422895Y2298695D01*
G01X-5422895Y2476505D01*
G01X-5308600Y2590800D01*
G01X-5775808Y-4453699D02*
G01X-5471008Y-4148899D01*
G01X-4831984Y-4148899D01*
G01X-4829200Y-4146115D01*
G01X-5471008Y-4148899D02*
G01X-5471008Y-3094799D01*
G01X-5788508Y-2777299D01*
G01X-5966308Y-2599499D01*
G01X-5966308Y-1342199D01*
G01X-5813908Y-1189799D01*
G01X-4829200Y-4146115D02*
G01X-4651400Y-4323915D01*
G01X-3483000Y-4323915D01*
G01X-2670200Y-3511115D01*
G01X-2670200Y-3288416D01*
G01X-2666995Y-3285211D01*
G01X-2670200Y-3288416D02*
G01X-2568600Y-3390016D01*
G01X-1006500Y-3390016D01*
G01X-901695Y-3285211D01*
G01X-5813908Y-1189799D02*
G01X-6956908Y-46799D01*
G01X-6956908Y3228492D01*
G01X-6832600Y3352800D01*
G01X-5813908Y-689800D02*
G01X-4684001Y-689800D01*
G01X-4154602Y-1219200D01*
G01X-3469182Y-3906136D02*
G01X-3469182Y-1391536D01*
G01X-6720382Y1859664D01*
G01X-6720382Y2224582D01*
G01X-6832600Y2336800D01*
G04 Track End*

M02*

