G04 Layer: DrillDrawingLayer*
G04 EasyEDA Pro v2.2.46.11, 2026-04-02 23:35:58*
G04 Gerber Generator version 0.3*
G04 Scale: 100 percent, Rotated: No, Reflected: No*
G04 Dimensions in millimeters*
G04 Leading zeros omitted, absolute positions, 4 integers and 5 decimals*
G04 Generated by one-click*
%FSLAX45Y45*%
%MOMM*%
%AMIconRect*4,1,4,0.28,-0.28,-0.28,-0.28,-0.28,0.28,0.28,0.28,0.28,-0.28,0*4,0,4,0.233333,-0.233333,0.233333,0.233333,-0.233333,0.233333,-0.233333,-0.233333,0.233333,-0.233333,0*%
%AMIconTriangle*4,1,3,-0.339593,0.240473,0.339593,0.240473,0,-0.37884,-0.339593,0.240473,0*4,0,3,-0.265673,0.19404,0,-0.27342,0.266233,0.19404,-0.265673,0.19404,0*%
%AMIconStar6*4,1,12,0.12068,0.20888,0.298527,0.172713,0.241313,0,0.298527,-0.17206,0.12068,-0.208227,0,-0.344073,-0.120073,-0.208227,-0.298573,-0.17206,-0.240707,0,-0.298573,0.17206,-0.120073,0.20888,0,0.344073,0.12068,0.20888,0*4,0,12,-0.000467,0.273467,-0.090067,0.171733,-0.237533,0.136733,-0.193667,-0.007467,-0.237533,-0.1372,-0.090067,-0.171733,-0.000467,-0.273933,0.090067,-0.171733,0.237533,-0.1372,0.194133,0.007,0.237533,0.1372,0.090067,0.171267,-0.000467,0.273467,0*%
%AMIconStar4*4,1,8,-0.311733,0.311733,0,0.202533,0.311733,0.311733,0.202533,0,0.311733,-0.311733,0,-0.202533,-0.304407,-0.311733,-0.202533,0,-0.311733,0.311733,0*4,0,8,0.233333,-0.233333,0.1512,0,0.233333,0.233333,0,0.1512,-0.233333,0.233333,-0.1512,0,-0.233333,-0.233333,0,-0.1512,0.233333,-0.233333,0*%
%ADD10IconRect*%
%ADD11C,0.616X0.522667*%
%ADD12IconTriangle*%
%ADD13IconStar6*%
%ADD14IconStar4*%
G75*


G04 Drill Drawing Start*
G54D10*
G01X-2285995Y-1885214D03*
G01X-2285995Y2214803D03*
G01X-520695Y-1885214D03*
G01X-520695Y2214803D03*
G54D11*
G01X-7594600Y3924300D03*
G01X-4432300Y-4953000D03*
G01X939800Y-4686300D03*
G01X977900Y3924300D03*
G54D12*
G01X-5054600Y-1219200D03*
G01X-5041900Y-520700D03*
G01X-5029200Y-2019300D03*
G01X-4154602Y-1219200D03*
G01X-4141902Y-520700D03*
G01X-4129202Y-2019300D03*
G54D13*
G01X-7063892Y-1189799D03*
G01X-7063892Y-689800D03*
G01X-7038492Y-2777299D03*
G01X-7038492Y-2277300D03*
G01X-7025792Y-4453699D03*
G01X-7025792Y-3953700D03*
G01X-5813908Y-1189799D03*
G01X-5813908Y-689800D03*
G01X-5788508Y-2777299D03*
G01X-5788508Y-2277300D03*
G01X-5775808Y-4453699D03*
G01X-5775808Y-3953700D03*
G54D14*
G01X-6832600Y1320800D03*
G01X-6832600Y1574800D03*
G01X-6832600Y1828800D03*
G01X-6832600Y2082800D03*
G01X-6832600Y2336800D03*
G01X-6832600Y2590800D03*
G01X-6832600Y2844800D03*
G01X-6832600Y3098800D03*
G01X-6832600Y3352800D03*
G01X-6832600Y3606800D03*
G01X-6832600Y3860800D03*
G01X-6832600Y4114800D03*
G01X-5308600Y1320800D03*
G01X-5308600Y1574800D03*
G01X-5308600Y1828800D03*
G01X-5308600Y2082800D03*
G01X-5308600Y2336800D03*
G01X-5308600Y2590800D03*
G01X-5308600Y2844800D03*
G01X-5308600Y3098800D03*
G01X-5308600Y3352800D03*
G01X-5308600Y3606800D03*
G01X-5308600Y3860800D03*
G01X-5308600Y4114800D03*
G01X-2666995Y-3285211D03*
G01X-2666995Y3914800D03*
G01X-2412995Y3914800D03*
G01X-2158995Y3914800D03*
G01X-2146295Y-3285211D03*
G01X-1904995Y3914800D03*
G01X-901695Y-3285211D03*
G01X-901695Y3914800D03*
G01X-647695Y3914800D03*
G01X-393695Y3914800D03*
G01X-380995Y-3285211D03*
G01X-139695Y3914800D03*
G04 Drill Drawing End*

M02*

