G04 Layer: TopSolderMaskLayer*
G04 EasyEDA Pro v2.2.46.11, 2026-04-02 23:35:58*
G04 Gerber Generator version 0.3*
G04 Scale: 100 percent, Rotated: No, Reflected: No*
G04 Dimensions in millimeters*
G04 Leading zeros omitted, absolute positions, 4 integers and 5 decimals*
G04 Generated by one-click*
%FSLAX45Y45*%
%MOMM*%
%AMRoundRect*1,1,$1,$2,$3*1,1,$1,$4,$5*1,1,$1,0-$2,0-$3*1,1,$1,0-$4,0-$5*20,1,$1,$2,$3,$4,$5,0*20,1,$1,$4,$5,0-$2,0-$3,0*20,1,$1,0-$2,0-$3,0-$4,0-$5,0*20,1,$1,0-$4,0-$5,$2,$3,0*4,1,4,$2,$3,$4,$5,0-$2,0-$3,0-$4,0-$5,$2,$3,0*%
%ADD10C,0.1524*%
%ADD11C,2.6016*%
%ADD12RoundRect,0.09838X-2.00161X1.50161X2.00161X1.50161*%
%ADD13C,5.10159*%
%ADD14C,1.6256*%
%ADD15C,2.4*%
%ADD16RoundRect,0.18181X-0.77269X0.77269X0.77269X0.77269*%
%ADD17C,1.7366*%
%ADD18C,1.7272*%
%ADD19C,7.1016*%
G75*


G04 Image Start*
G36*
G01X-6486201Y1976224D02*
G01X-6497597Y1975886D01*
G01X-6510364Y1976059D01*
G01X-6527153Y1976723D01*
G01X-6538427Y1977832D01*
G01X-6547521Y1979908D01*
G01X-6557766Y1983472D01*
G01X-6566159Y1986828D01*
G01X-6574231Y1990478D01*
G01X-6581987Y1994425D01*
G01X-6589434Y1998675D01*
G01X-6596577Y2003234D01*
G01X-6603421Y2008108D01*
G01X-6609974Y2013300D01*
G01X-6616239Y2018818D01*
G01X-6622225Y2024665D01*
G01X-6627935Y2030848D01*
G01X-6633376Y2037372D01*
G01X-6638554Y2044242D01*
G01X-6643474Y2051464D01*
G01X-6648142Y2059043D01*
G01X-6652565Y2066984D01*
G01X-6656747Y2075292D01*
G01X-6662109Y2086964D01*
G01X-6666418Y2097534D01*
G01X-6669775Y2107482D01*
G01X-6672283Y2117289D01*
G01X-6674046Y2127436D01*
G01X-6675166Y2138401D01*
G01X-6675745Y2150666D01*
G01X-6675887Y2164711D01*
G01X-6675861Y2167044D01*
G01X-6615111Y2167044D01*
G01X-6614898Y2157516D01*
G01X-6613637Y2143194D01*
G01X-6611121Y2129306D01*
G01X-6607403Y2115974D01*
G01X-6602539Y2103321D01*
G01X-6596581Y2091470D01*
G01X-6589585Y2080544D01*
G01X-6581604Y2070665D01*
G01X-6572694Y2061957D01*
G01X-6567633Y2057941D01*
G01X-6561888Y2053999D01*
G01X-6555645Y2050226D01*
G01X-6549089Y2046714D01*
G01X-6542408Y2043557D01*
G01X-6535787Y2040851D01*
G01X-6529414Y2038687D01*
G01X-6523474Y2037162D01*
G01X-6523474Y2037162D01*
G01X-6512920Y2035641D01*
G01X-6502190Y2035374D01*
G01X-6491380Y2036295D01*
G01X-6480586Y2038343D01*
G01X-6469902Y2041452D01*
G01X-6459427Y2045560D01*
G01X-6449255Y2050602D01*
G01X-6439483Y2056515D01*
G01X-6430206Y2063236D01*
G01X-6421521Y2070700D01*
G01X-6413523Y2078844D01*
G01X-6406309Y2087605D01*
G01X-6399974Y2096918D01*
G01X-6394614Y2106721D01*
G01X-6390327Y2116948D01*
G01X-6387206Y2127538D01*
G01X-6386056Y2134626D01*
G01X-6385440Y2143299D01*
G01X-6385327Y2153040D01*
G01X-6385689Y2163331D01*
G01X-6386496Y2173655D01*
G01X-6387719Y2183496D01*
G01X-6389329Y2192335D01*
G01X-6391297Y2199655D01*
G01X-6393801Y2206545D01*
G01X-6396679Y2213342D01*
G01X-6403571Y2226678D01*
G01X-6412003Y2239698D01*
G01X-6422008Y2252441D01*
G01X-6433617Y2264944D01*
G01X-6446863Y2277244D01*
G01X-6461776Y2289377D01*
G01X-6478390Y2301382D01*
G01X-6490439Y2309385D01*
G01X-6496148Y2312714D01*
G01X-6501504Y2309915D01*
G01X-6512708Y2303184D01*
G01X-6528080Y2293153D01*
G01X-6542767Y2282598D01*
G01X-6556524Y2271742D01*
G01X-6569109Y2260807D01*
G01X-6580279Y2250015D01*
G01X-6589790Y2239590D01*
G01X-6597399Y2229753D01*
G01X-6602863Y2220726D01*
G01X-6606275Y2213449D01*
G01X-6609088Y2206280D01*
G01X-6611328Y2199076D01*
G01X-6613023Y2191694D01*
G01X-6614201Y2183990D01*
G01X-6614888Y2175821D01*
G01X-6615111Y2167044D01*
G01X-6675861Y2167044D01*
G01X-6675678Y2183573D01*
G01X-6674918Y2196190D01*
G01X-6673214Y2206172D01*
G01X-6670171Y2217129D01*
G01X-6667425Y2225489D01*
G01X-6664329Y2233619D01*
G01X-6660865Y2241541D01*
G01X-6657015Y2249277D01*
G01X-6652760Y2256850D01*
G01X-6648085Y2264281D01*
G01X-6642969Y2271592D01*
G01X-6637396Y2278806D01*
G01X-6631348Y2285945D01*
G01X-6624806Y2293031D01*
G01X-6610170Y2307132D01*
G01X-6593347Y2321285D01*
G01X-6574192Y2335668D01*
G01X-6557891Y2347318D01*
G01X-6574849Y2359161D01*
G01X-6587808Y2368937D01*
G01X-6600530Y2379936D01*
G01X-6612801Y2391908D01*
G01X-6624405Y2404604D01*
G01X-6635128Y2417777D01*
G01X-6644755Y2431176D01*
G01X-6653071Y2444552D01*
G01X-6659860Y2457658D01*
G01X-6665778Y2471898D01*
G01X-6670667Y2486668D01*
G01X-6674492Y2501729D01*
G01X-6677219Y2516843D01*
G01X-6678813Y2531769D01*
G01X-6679076Y2540696D01*
G01X-6617477Y2540696D01*
G01X-6616900Y2529878D01*
G01X-6615342Y2518976D01*
G01X-6612824Y2508047D01*
G01X-6609367Y2497149D01*
G01X-6604990Y2486339D01*
G01X-6599715Y2475672D01*
G01X-6593562Y2465207D01*
G01X-6586552Y2455000D01*
G01X-6578706Y2445108D01*
G01X-6570042Y2435588D01*
G01X-6560584Y2426497D01*
G01X-6550350Y2417893D01*
G01X-6532936Y2405261D01*
G01X-6515554Y2394136D01*
G01X-6515554Y2394136D01*
G01X-6498194Y2384088D01*
G01X-6481266Y2395357D01*
G01X-6463509Y2407835D01*
G01X-6447459Y2420479D01*
G01X-6433152Y2433248D01*
G01X-6420624Y2446102D01*
G01X-6409912Y2459001D01*
G01X-6405248Y2465455D01*
G01X-6401052Y2471906D01*
G01X-6397327Y2478347D01*
G01X-6394079Y2484775D01*
G01X-6391313Y2491183D01*
G01X-6389032Y2497568D01*
G01X-6386980Y2505448D01*
G01X-6385540Y2514171D01*
G01X-6384711Y2523497D01*
G01X-6384489Y2533184D01*
G01X-6384874Y2542991D01*
G01X-6385863Y2552676D01*
G01X-6387453Y2561998D01*
G01X-6389644Y2570714D01*
G01X-6393755Y2582712D01*
G01X-6398680Y2594007D01*
G01X-6404367Y2604564D01*
G01X-6410763Y2614348D01*
G01X-6417814Y2623325D01*
G01X-6425470Y2631460D01*
G01X-6433677Y2638719D01*
G01X-6442382Y2645067D01*
G01X-6451533Y2650469D01*
G01X-6461078Y2654891D01*
G01X-6470964Y2658299D01*
G01X-6481137Y2660657D01*
G01X-6491547Y2661932D01*
G01X-6502140Y2662088D01*
G01X-6512863Y2661091D01*
G01X-6523664Y2658907D01*
G01X-6530448Y2656907D01*
G01X-6537152Y2654434D01*
G01X-6543754Y2651511D01*
G01X-6550230Y2648157D01*
G01X-6556556Y2644394D01*
G01X-6562709Y2640243D01*
G01X-6568666Y2635724D01*
G01X-6574403Y2630859D01*
G01X-6579897Y2625669D01*
G01X-6585123Y2620175D01*
G01X-6590060Y2614398D01*
G01X-6594683Y2608358D01*
G01X-6598969Y2602077D01*
G01X-6602894Y2595575D01*
G01X-6606435Y2588875D01*
G01X-6609569Y2581996D01*
G01X-6613119Y2572081D01*
G01X-6615607Y2561855D01*
G01X-6617053Y2551374D01*
G01X-6617477Y2540696D01*
G01X-6679076Y2540696D01*
G01X-6679240Y2546270D01*
G01X-6678466Y2560107D01*
G01X-6676456Y2573040D01*
G01X-6673473Y2584704D01*
G01X-6669477Y2596604D01*
G01X-6664556Y2608569D01*
G01X-6658798Y2620432D01*
G01X-6652291Y2632023D01*
G01X-6645123Y2643173D01*
G01X-6637384Y2653713D01*
G01X-6629160Y2663474D01*
G01X-6620596Y2672130D01*
G01X-6610877Y2680536D01*
G01X-6600236Y2688546D01*
G01X-6588907Y2696018D01*
G01X-6577124Y2702807D01*
G01X-6565119Y2708769D01*
G01X-6553127Y2713760D01*
G01X-6541382Y2717636D01*
G01X-6533268Y2719550D01*
G01X-6524060Y2721067D01*
G01X-6514145Y2722171D01*
G01X-6503906Y2722844D01*
G01X-6493730Y2723069D01*
G01X-6484001Y2722830D01*
G01X-6475103Y2722109D01*
G01X-6467423Y2720890D01*
G01X-6455203Y2717830D01*
G01X-6443361Y2713927D01*
G01X-6431919Y2709203D01*
G01X-6420899Y2703680D01*
G01X-6410320Y2697379D01*
G01X-6400206Y2690321D01*
G01X-6390577Y2682528D01*
G01X-6381454Y2674019D01*
G01X-6372858Y2664818D01*
G01X-6364812Y2654945D01*
G01X-6357335Y2644421D01*
G01X-6350450Y2633268D01*
G01X-6344178Y2621506D01*
G01X-6338539Y2609158D01*
G01X-6333556Y2596244D01*
G01X-6329249Y2582785D01*
G01X-6326832Y2573226D01*
G01X-6325409Y2563576D01*
G01X-6324731Y2551255D01*
G01X-6324552Y2533688D01*
G01X-6324672Y2520554D01*
G01X-6325117Y2509433D01*
G01X-6325996Y2499799D01*
G01X-6327418Y2491128D01*
G01X-6329491Y2482895D01*
G01X-6332323Y2474575D01*
G01X-6336023Y2465644D01*
G01X-6340700Y2455576D01*
G01X-6347459Y2442914D01*
G01X-6355552Y2430160D01*
G01X-6364832Y2417480D01*
G01X-6375156Y2405039D01*
G01X-6386377Y2393002D01*
G01X-6398350Y2381534D01*
G01X-6410929Y2370800D01*
G01X-6423970Y2360966D01*
G01X-6434231Y2353408D01*
G01X-6438552Y2349596D01*
G01X-6434538Y2345819D01*
G01X-6424764Y2338347D01*
G01X-6416060Y2331570D01*
G01X-6406762Y2323550D01*
G01X-6397207Y2314635D01*
G01X-6387734Y2305173D01*
G01X-6378679Y2295513D01*
G01X-6370380Y2286002D01*
G01X-6363173Y2276990D01*
G01X-6357397Y2268823D01*
G01X-6352482Y2260855D01*
G01X-6347838Y2252548D01*
G01X-6343517Y2244021D01*
G01X-6339571Y2235392D01*
G01X-6336050Y2226780D01*
G01X-6333006Y2218305D01*
G01X-6330491Y2210083D01*
G01X-6328556Y2202235D01*
G01X-6327035Y2193742D01*
G01X-6325800Y2184075D01*
G01X-6324258Y2162954D01*
G01X-6324074Y2142340D01*
G01X-6324536Y2133307D01*
G01X-6325392Y2125702D01*
G01X-6327387Y2115210D01*
G01X-6330041Y2104911D01*
G01X-6333337Y2094828D01*
G01X-6337261Y2084980D01*
G01X-6341795Y2075389D01*
G01X-6346923Y2066076D01*
G01X-6352629Y2057062D01*
G01X-6358898Y2048368D01*
G01X-6365712Y2040016D01*
G01X-6373056Y2032026D01*
G01X-6380913Y2024419D01*
G01X-6389268Y2017218D01*
G01X-6398103Y2010442D01*
G01X-6407403Y2004113D01*
G01X-6417152Y1998252D01*
G01X-6427334Y1992880D01*
G01X-6437737Y1988013D01*
G01X-6447444Y1984076D01*
G01X-6456799Y1980998D01*
G01X-6466147Y1978710D01*
G01X-6475833Y1977142D01*
G01X-6486201Y1976224D01*
G37*
G36*
G01X-6481815Y2098932D02*
G01X-6508541Y2098932D01*
G01X-6508541Y2222267D01*
G01X-6481815Y2222267D01*
G01X-6481815Y2098932D01*
G37*
G36*
G01X-6477704Y2481270D02*
G01X-6512655Y2481270D01*
G01X-6512655Y2514161D01*
G01X-6547605Y2514161D01*
G01X-6547605Y2549105D01*
G01X-6512655Y2549105D01*
G01X-6512655Y2584050D01*
G01X-6477704Y2584050D01*
G01X-6477704Y2549105D01*
G01X-6442754Y2549105D01*
G01X-6442754Y2514161D01*
G01X-6477704Y2514161D01*
G01X-6477704Y2481270D01*
G37*
G36*
G01X-6826698Y1984421D02*
G01X-6827346Y1984342D01*
G01X-6827890Y1984638D01*
G01X-6828686Y1986450D01*
G01X-6829130Y1990053D01*
G01X-6829268Y1995645D01*
G01X-6829268Y2007812D01*
G01X-6804598Y2014672D01*
G01X-6804598Y2034971D01*
G01X-6786093Y2034971D01*
G01X-6786000Y2026736D01*
G01X-6785460Y2022511D01*
G01X-6785460Y2022511D01*
G01X-6784899Y2021548D01*
G01X-6784079Y2021160D01*
G01X-6781467Y2021546D01*
G01X-6748075Y2030675D01*
G01X-6738257Y2033703D01*
G01X-6734702Y2035217D01*
G01X-6736538Y2036162D01*
G01X-6741426Y2037896D01*
G01X-6756622Y2042624D01*
G01X-6772806Y2047186D01*
G01X-6782495Y2049368D01*
G01X-6784371Y2048981D01*
G01X-6785002Y2048235D01*
G01X-6785462Y2046987D01*
G01X-6785969Y2042584D01*
G01X-6786093Y2034971D01*
G01X-6804598Y2034971D01*
G01X-6804598Y2055552D01*
G01X-6816933Y2059012D01*
G01X-6829268Y2062475D01*
G01X-6829268Y2075564D01*
G01X-6828815Y2084750D01*
G01X-6828325Y2087498D01*
G01X-6827726Y2088453D01*
G01X-6767075Y2070507D01*
G01X-6707968Y2052764D01*
G01X-6707968Y2019625D01*
G01X-6766047Y2002494D01*
G01X-6826698Y1984421D01*
G37*
G36*
G01X-6754408Y2623186D02*
G01X-6760960Y2622540D01*
G01X-6767790Y2622331D01*
G01X-6774876Y2622570D01*
G01X-6782196Y2623269D01*
G01X-6791257Y2624832D01*
G01X-6799427Y2627130D01*
G01X-6806691Y2630154D01*
G01X-6813037Y2633893D01*
G01X-6818451Y2638341D01*
G01X-6822922Y2643486D01*
G01X-6826435Y2649321D01*
G01X-6828978Y2655835D01*
G01X-6830699Y2662914D01*
G01X-6831151Y2669283D01*
G01X-6830963Y2670789D01*
G01X-6808432Y2670789D01*
G01X-6807762Y2665604D01*
G01X-6805779Y2660405D01*
G01X-6804020Y2657607D01*
G01X-6801811Y2655259D01*
G01X-6799037Y2653320D01*
G01X-6795584Y2651749D01*
G01X-6791341Y2650503D01*
G01X-6786193Y2649542D01*
G01X-6772730Y2648308D01*
G01X-6772730Y2648308D01*
G01X-6761652Y2648093D01*
G01X-6752144Y2648748D01*
G01X-6744179Y2650289D01*
G01X-6737727Y2652730D01*
G01X-6735059Y2654293D01*
G01X-6732759Y2656086D01*
G01X-6730822Y2658112D01*
G01X-6729246Y2660372D01*
G01X-6728026Y2662868D01*
G01X-6727160Y2665601D01*
G01X-6726470Y2671790D01*
G01X-6727039Y2677311D01*
G01X-6728776Y2682018D01*
G01X-6731733Y2685940D01*
G01X-6735960Y2689107D01*
G01X-6741506Y2691547D01*
G01X-6748422Y2693288D01*
G01X-6756757Y2694360D01*
G01X-6766563Y2694791D01*
G01X-6779141Y2694348D01*
G01X-6789178Y2693057D01*
G01X-6794770Y2691159D01*
G01X-6799512Y2688333D01*
G01X-6803326Y2684731D01*
G01X-6806136Y2680504D01*
G01X-6807864Y2675806D01*
G01X-6808432Y2670789D01*
G01X-6830963Y2670789D01*
G01X-6830298Y2676117D01*
G01X-6828105Y2684590D01*
G01X-6826037Y2690200D01*
G01X-6823303Y2695413D01*
G01X-6819943Y2700193D01*
G01X-6815997Y2704500D01*
G01X-6811505Y2708296D01*
G01X-6806506Y2711543D01*
G01X-6801040Y2714203D01*
G01X-6795147Y2716237D01*
G01X-6789075Y2717596D01*
G01X-6782044Y2718596D01*
G01X-6774415Y2719235D01*
G01X-6766544Y2719507D01*
G01X-6758793Y2719410D01*
G01X-6751518Y2718938D01*
G01X-6745080Y2718088D01*
G01X-6739836Y2716856D01*
G01X-6732745Y2714380D01*
G01X-6726718Y2711699D01*
G01X-6721646Y2708711D01*
G01X-6717420Y2705312D01*
G01X-6713931Y2701398D01*
G01X-6711069Y2696866D01*
G01X-6708725Y2691612D01*
G01X-6706790Y2685532D01*
G01X-6705026Y2678285D01*
G01X-6704305Y2672668D01*
G01X-6704572Y2667341D01*
G01X-6705772Y2660961D01*
G01X-6707211Y2655942D01*
G01X-6709202Y2651226D01*
G01X-6711720Y2646824D01*
G01X-6714744Y2642747D01*
G01X-6718250Y2639007D01*
G01X-6722217Y2635615D01*
G01X-6726621Y2632581D01*
G01X-6731440Y2629917D01*
G01X-6736651Y2627634D01*
G01X-6742231Y2625744D01*
G01X-6748158Y2624258D01*
G01X-6754408Y2623186D01*
G37*
G36*
G01X-6707370Y2243685D02*
G01X-6706559Y2230563D01*
G01X-6705277Y2203768D01*
G01X-6829874Y2203768D01*
G01X-6828831Y2226380D01*
G01X-6809285Y2226380D01*
G01X-6726470Y2226380D01*
G01X-6726470Y2236758D01*
G01X-6727109Y2244986D01*
G01X-6727916Y2248622D01*
G01X-6729057Y2251945D01*
G01X-6730536Y2254959D01*
G01X-6732359Y2257669D01*
G01X-6734534Y2260078D01*
G01X-6737064Y2262191D01*
G01X-6739957Y2264011D01*
G01X-6743217Y2265544D01*
G01X-6750865Y2267764D01*
G01X-6760055Y2268884D01*
G01X-6770833Y2268938D01*
G01X-6779102Y2268397D01*
G01X-6785413Y2267452D01*
G01X-6790385Y2265970D01*
G01X-6794637Y2263817D01*
G01X-6797618Y2261749D01*
G01X-6800155Y2259467D01*
G01X-6802286Y2256898D01*
G01X-6804049Y2253968D01*
G01X-6805481Y2250604D01*
G01X-6806620Y2246732D01*
G01X-6806620Y2246732D01*
G01X-6808165Y2237172D01*
G01X-6809285Y2226380D01*
G01X-6828831Y2226380D01*
G01X-6828747Y2228187D01*
G01X-6827993Y2240394D01*
G01X-6826922Y2249551D01*
G01X-6825376Y2256634D01*
G01X-6823197Y2262619D01*
G01X-6820004Y2268889D01*
G01X-6816275Y2274491D01*
G01X-6812030Y2279409D01*
G01X-6807287Y2283629D01*
G01X-6802065Y2287136D01*
G01X-6796383Y2289916D01*
G01X-6790259Y2291955D01*
G01X-6783711Y2293238D01*
G01X-6772714Y2294601D01*
G01X-6765074Y2295178D01*
G01X-6758868Y2295030D01*
G01X-6752171Y2294217D01*
G01X-6744798Y2292803D01*
G01X-6738157Y2290847D01*
G01X-6732214Y2288327D01*
G01X-6726940Y2285222D01*
G01X-6722302Y2281511D01*
G01X-6718270Y2277172D01*
G01X-6714811Y2272182D01*
G01X-6711894Y2266521D01*
G01X-6709914Y2260830D01*
G01X-6708447Y2253496D01*
G01X-6707370Y2243685D01*
G37*
G36*
G01X-6705912Y2310658D02*
G01X-6753791Y2310658D01*
G01X-6780700Y2310761D01*
G01X-6796130Y2311320D01*
G01X-6800970Y2311885D01*
G01X-6804654Y2312703D01*
G01X-6807755Y2313821D01*
G01X-6810844Y2315283D01*
G01X-6815135Y2317966D01*
G01X-6819056Y2321448D01*
G01X-6822545Y2325612D01*
G01X-6825540Y2330344D01*
G01X-6827976Y2335530D01*
G01X-6829790Y2341053D01*
G01X-6830921Y2346798D01*
G01X-6831304Y2352652D01*
G01X-6830683Y2360113D01*
G01X-6828925Y2367358D01*
G01X-6826146Y2374218D01*
G01X-6822459Y2380526D01*
G01X-6817980Y2386116D01*
G01X-6812823Y2390820D01*
G01X-6807104Y2394471D01*
G01X-6800937Y2396901D01*
G01X-6794519Y2397726D01*
G01X-6782702Y2398404D01*
G01X-6749601Y2399036D01*
G01X-6705912Y2399048D01*
G01X-6705912Y2376437D01*
G01X-6739321Y2376208D01*
G01X-6777351Y2376355D01*
G01X-6783946Y2375928D01*
G01X-6793312Y2374375D01*
G01X-6799105Y2372953D01*
G01X-6803037Y2371330D01*
G01X-6805704Y2369163D01*
G01X-6807706Y2366109D01*
G01X-6809555Y2361483D01*
G01X-6810441Y2356780D01*
G01X-6810410Y2352155D01*
G01X-6809511Y2347761D01*
G01X-6807791Y2343750D01*
G01X-6805298Y2340275D01*
G01X-6802080Y2337490D01*
G01X-6798184Y2335547D01*
G01X-6792454Y2334607D01*
G01X-6781768Y2333889D01*
G01X-6748781Y2333269D01*
G01X-6705912Y2333269D01*
G01X-6705912Y2310658D01*
G37*
G36*
G01X-6707968Y2520327D02*
G01X-6829268Y2520327D01*
G01X-6829268Y2542855D01*
G01X-6744960Y2543967D01*
G01X-6787073Y2562466D01*
G01X-6829189Y2580968D01*
G01X-6829230Y2594841D01*
G01X-6829268Y2608718D01*
G01X-6707968Y2608718D01*
G01X-6707968Y2588246D01*
G01X-6749195Y2587690D01*
G01X-6790420Y2587134D01*
G01X-6749195Y2568881D01*
G01X-6707968Y2550631D01*
G01X-6707968Y2520327D01*
G37*
G36*
G01X-6768104Y2101471D02*
G01X-6829268Y2100927D01*
G01X-6829268Y2125654D01*
G01X-6777425Y2125654D01*
G01X-6759367Y2125654D01*
G01X-6725963Y2125654D01*
G01X-6726927Y2137301D01*
G01X-6727618Y2143057D01*
G01X-6728684Y2147266D01*
G01X-6730277Y2150347D01*
G01X-6732552Y2152718D01*
G01X-6736435Y2155050D01*
G01X-6740812Y2156267D01*
G01X-6745427Y2156333D01*
G01X-6750023Y2155211D01*
G01X-6751853Y2154136D01*
G01X-6753582Y2152410D01*
G01X-6755166Y2150132D01*
G01X-6756561Y2147403D01*
G01X-6758607Y2140993D01*
G01X-6759367Y2133981D01*
G01X-6759367Y2125654D01*
G01X-6759367Y2125654D01*
G01X-6777425Y2125654D01*
G01X-6778806Y2131307D01*
G01X-6779727Y2134292D01*
G01X-6781046Y2136923D01*
G01X-6782950Y2139339D01*
G01X-6785621Y2141678D01*
G01X-6789245Y2144081D01*
G01X-6794007Y2146685D01*
G01X-6807680Y2153056D01*
G01X-6828239Y2162139D01*
G01X-6828866Y2174002D01*
G01X-6828822Y2182831D01*
G01X-6828430Y2185869D01*
G01X-6827838Y2187401D01*
G01X-6825265Y2187066D01*
G01X-6819479Y2185016D01*
G01X-6801706Y2177125D01*
G01X-6783612Y2167682D01*
G01X-6777482Y2163953D01*
G01X-6774487Y2161566D01*
G01X-6772393Y2159176D01*
G01X-6771633Y2158650D01*
G01X-6771209Y2158694D01*
G01X-6767538Y2165693D01*
G01X-6765299Y2169336D01*
G01X-6762608Y2172490D01*
G01X-6759529Y2175154D01*
G01X-6756125Y2177330D01*
G01X-6752456Y2179018D01*
G01X-6748588Y2180218D01*
G01X-6744582Y2180930D01*
G01X-6740500Y2181154D01*
G01X-6736406Y2180892D01*
G01X-6732363Y2180142D01*
G01X-6728432Y2178907D01*
G01X-6724678Y2177184D01*
G01X-6721161Y2174976D01*
G01X-6717946Y2172283D01*
G01X-6715095Y2169104D01*
G01X-6712671Y2165440D01*
G01X-6710270Y2160256D01*
G01X-6708809Y2153930D01*
G01X-6707994Y2144417D01*
G01X-6707531Y2129670D01*
G01X-6706940Y2102017D01*
G01X-6768104Y2101471D01*
G37*
G36*
G01X-6726470Y2497715D02*
G01X-6705912Y2497715D01*
G01X-6705912Y2419604D01*
G01X-6726470Y2419604D01*
G01X-6726470Y2446326D01*
G01X-6808709Y2446326D01*
G01X-6808709Y2419604D01*
G01X-6827214Y2419604D01*
G01X-6827214Y2497715D01*
G01X-6808709Y2497715D01*
G01X-6808709Y2470994D01*
G01X-6726470Y2470994D01*
G01X-6726470Y2497715D01*
G37*
G36*
G01X-6338139Y2687104D02*
G01X-6338584Y2679982D01*
G01X-6338934Y2678638D01*
G01X-6339317Y2679122D01*
G01X-6340144Y2680756D01*
G01X-6341691Y2681874D01*
G01X-6344046Y2682515D01*
G01X-6347302Y2682719D01*
G01X-6352278Y2683323D01*
G01X-6353792Y2683976D01*
G01X-6354348Y2684773D01*
G01X-6353780Y2685572D01*
G01X-6352234Y2686226D01*
G01X-6347152Y2686829D01*
G01X-6343907Y2687008D01*
G01X-6341669Y2687563D01*
G01X-6340374Y2688523D01*
G01X-6339957Y2689914D01*
G01X-6340374Y2691304D01*
G01X-6341669Y2692262D01*
G01X-6343907Y2692817D01*
G01X-6347152Y2692996D01*
G01X-6351754Y2693508D01*
G01X-6353231Y2694068D01*
G01X-6354105Y2694759D01*
G01X-6354335Y2695525D01*
G01X-6353880Y2696315D01*
G01X-6352698Y2697073D01*
G01X-6350750Y2697746D01*
G01X-6348179Y2698586D01*
G01X-6350750Y2698923D01*
G01X-6352394Y2699187D01*
G01X-6353512Y2699687D01*
G01X-6354112Y2700367D01*
G01X-6354206Y2701172D01*
G01X-6353804Y2702046D01*
G01X-6352916Y2702933D01*
G01X-6349722Y2704526D01*
G01X-6345096Y2706055D01*
G01X-6350235Y2707542D01*
G01X-6352450Y2708297D01*
G01X-6352827Y2708569D01*
G01X-6352690Y2708783D01*
G01X-6346637Y2709235D01*
G01X-6340467Y2708758D01*
G01X-6338589Y2708127D01*
G01X-6337900Y2707319D01*
G01X-6338265Y2706346D01*
G01X-6339259Y2705266D01*
G01X-6342526Y2703313D01*
G01X-6347152Y2701429D01*
G01X-6342526Y2700056D01*
G01X-6340069Y2698969D01*
G01X-6339267Y2698145D01*
G01X-6338704Y2696996D01*
G01X-6338154Y2693315D01*
G01X-6338139Y2687104D01*
G37*
G04 Image End*

G04 Text Start*
G54D10*
G01X-6657668Y5810608D02*
G01X-6657668Y5722216D01*
G01X-6657668Y5810608D02*
G01X-6619822Y5810608D01*
G01X-6607122Y5806290D01*
G01X-6603058Y5801972D01*
G01X-6598740Y5793590D01*
G01X-6598740Y5781144D01*
G01X-6603058Y5772762D01*
G01X-6607122Y5768444D01*
G01X-6619822Y5764126D01*
G01X-6657668Y5764126D01*
G01X-6563434Y5810608D02*
G01X-6563434Y5722216D01*
G01X-6563434Y5810608D02*
G01X-6525588Y5810608D01*
G01X-6512888Y5806290D01*
G01X-6508570Y5801972D01*
G01X-6504506Y5793590D01*
G01X-6504506Y5785208D01*
G01X-6508570Y5776826D01*
G01X-6512888Y5772762D01*
G01X-6525588Y5768444D01*
G01X-6563434Y5768444D01*
G01X-6533970Y5768444D02*
G01X-6504506Y5722216D01*
G01X-6443800Y5810608D02*
G01X-6452182Y5806290D01*
G01X-6460564Y5797908D01*
G01X-6464882Y5789526D01*
G01X-6469200Y5776826D01*
G01X-6469200Y5755744D01*
G01X-6464882Y5743298D01*
G01X-6460564Y5734916D01*
G01X-6452182Y5726280D01*
G01X-6443800Y5722216D01*
G01X-6427036Y5722216D01*
G01X-6418654Y5726280D01*
G01X-6410272Y5734916D01*
G01X-6405954Y5743298D01*
G01X-6401890Y5755744D01*
G01X-6401890Y5776826D01*
G01X-6405954Y5789526D01*
G01X-6410272Y5797908D01*
G01X-6418654Y5806290D01*
G01X-6427036Y5810608D01*
G01X-6443800Y5810608D01*
G01X-6272350Y5810608D02*
G01X-6272350Y5722216D01*
G01X-6272350Y5810608D02*
G01X-6238568Y5722216D01*
G01X-6205040Y5810608D02*
G01X-6238568Y5722216D01*
G01X-6205040Y5810608D02*
G01X-6205040Y5722216D01*
G01X-6169734Y5810608D02*
G01X-6169734Y5722216D01*
G01X-6071182Y5789526D02*
G01X-6075246Y5797908D01*
G01X-6083628Y5806290D01*
G01X-6092010Y5810608D01*
G01X-6109028Y5810608D01*
G01X-6117410Y5806290D01*
G01X-6125792Y5797908D01*
G01X-6129856Y5789526D01*
G01X-6134174Y5776826D01*
G01X-6134174Y5755744D01*
G01X-6129856Y5743298D01*
G01X-6125792Y5734916D01*
G01X-6117410Y5726280D01*
G01X-6109028Y5722216D01*
G01X-6092010Y5722216D01*
G01X-6083628Y5726280D01*
G01X-6075246Y5734916D01*
G01X-6071182Y5743298D01*
G01X-6035876Y5810608D02*
G01X-6035876Y5722216D01*
G01X-6035876Y5810608D02*
G01X-5998030Y5810608D01*
G01X-5985330Y5806290D01*
G01X-5981012Y5801972D01*
G01X-5976948Y5793590D01*
G01X-5976948Y5785208D01*
G01X-5981012Y5776826D01*
G01X-5985330Y5772762D01*
G01X-5998030Y5768444D01*
G01X-6035876Y5768444D01*
G01X-6006412Y5768444D02*
G01X-5976948Y5722216D01*
G01X-5916242Y5810608D02*
G01X-5924624Y5806290D01*
G01X-5933006Y5797908D01*
G01X-5937324Y5789526D01*
G01X-5941642Y5776826D01*
G01X-5941642Y5755744D01*
G01X-5937324Y5743298D01*
G01X-5933006Y5734916D01*
G01X-5924624Y5726280D01*
G01X-5916242Y5722216D01*
G01X-5899478Y5722216D01*
G01X-5891096Y5726280D01*
G01X-5882714Y5734916D01*
G01X-5878396Y5743298D01*
G01X-5874332Y5755744D01*
G01X-5874332Y5776826D01*
G01X-5878396Y5789526D01*
G01X-5882714Y5797908D01*
G01X-5891096Y5806290D01*
G01X-5899478Y5810608D01*
G01X-5916242Y5810608D01*
G01X-5775840Y5678954D02*
G01X-5707260Y5705116D01*
G01X-5775840Y5731278D02*
G01X-5707260Y5705116D01*
G01X-5775840Y5762266D02*
G01X-5707260Y5762266D01*
G01X-5775840Y5793254D02*
G01X-5707260Y5793254D01*
G01X-5775840Y5793254D02*
G01X-5707260Y5838974D01*
G01X-5775840Y5838974D02*
G01X-5707260Y5838974D01*
G01X-5746630Y5873264D02*
G01X-5743328Y5869962D01*
G01X-5740026Y5873264D01*
G01X-5743328Y5876566D01*
G01X-5746630Y5873264D01*
G01X-5723516Y5873264D02*
G01X-5720468Y5869962D01*
G01X-5717166Y5873264D01*
G01X-5720468Y5876566D01*
G01X-5723516Y5873264D01*
G01X-5766188Y6020076D02*
G01X-5772792Y6016774D01*
G01X-5775840Y6006868D01*
G01X-5775840Y6000264D01*
G01X-5772792Y5990612D01*
G01X-5762886Y5984008D01*
G01X-5746630Y5980706D01*
G01X-5730120Y5980706D01*
G01X-5717166Y5984008D01*
G01X-5710562Y5990612D01*
G01X-5707260Y6000264D01*
G01X-5707260Y6003566D01*
G01X-5710562Y6013472D01*
G01X-5717166Y6020076D01*
G01X-5726818Y6023124D01*
G01X-5730120Y6023124D01*
G01X-5740026Y6020076D01*
G01X-5746630Y6013472D01*
G01X-5749678Y6003566D01*
G01X-5749678Y6000264D01*
G01X-5746630Y5990612D01*
G01X-5740026Y5984008D01*
G01X-5730120Y5980706D01*
G01X-5736724Y6054112D02*
G01X-5736724Y6112786D01*
G01X-5762886Y6143774D02*
G01X-5766188Y6150378D01*
G01X-5775840Y6160030D01*
G01X-5707260Y6160030D01*
G01X-5759584Y6194320D02*
G01X-5762886Y6194320D01*
G01X-5769490Y6197622D01*
G01X-5772792Y6200670D01*
G01X-5775840Y6207274D01*
G01X-5775840Y6220482D01*
G01X-5772792Y6226832D01*
G01X-5769490Y6230134D01*
G01X-5762886Y6233436D01*
G01X-5756282Y6233436D01*
G01X-5749678Y6230134D01*
G01X-5740026Y6223530D01*
G01X-5707260Y6191018D01*
G01X-5707260Y6236738D01*
G01X-5775840Y6267726D02*
G01X-5707260Y6293888D01*
G01X-5775840Y6320050D02*
G01X-5707260Y6293888D01*
G01X-6144140Y5566001D02*
G01X-6144140Y5601815D01*
G01X-6117978Y5582257D01*
G01X-6117978Y5592163D01*
G01X-6114930Y5598513D01*
G01X-6111628Y5601815D01*
G01X-6101722Y5605117D01*
G01X-6095118Y5605117D01*
G01X-6085466Y5601815D01*
G01X-6078862Y5595465D01*
G01X-6075560Y5585559D01*
G01X-6075560Y5575653D01*
G01X-6078862Y5566001D01*
G01X-6082164Y5562699D01*
G01X-6088768Y5559397D01*
G01X-6144140Y5636105D02*
G01X-6075560Y5662267D01*
G01X-6144140Y5688429D02*
G01X-6075560Y5662267D01*
G01X-6144140Y5726021D02*
G01X-6144140Y5761835D01*
G01X-6117978Y5742277D01*
G01X-6117978Y5751929D01*
G01X-6114930Y5758533D01*
G01X-6111628Y5761835D01*
G01X-6101722Y5765137D01*
G01X-6095118Y5765137D01*
G01X-6085466Y5761835D01*
G01X-6078862Y5755231D01*
G01X-6075560Y5745579D01*
G01X-6075560Y5735673D01*
G01X-6078862Y5726021D01*
G01X-6082164Y5722719D01*
G01X-6088768Y5719417D01*
G01X-6121280Y5869277D02*
G01X-6075560Y5869277D01*
G01X-6108326Y5869277D02*
G01X-6117978Y5879183D01*
G01X-6121280Y5885533D01*
G01X-6121280Y5895439D01*
G01X-6117978Y5902043D01*
G01X-6108326Y5905345D01*
G01X-6075560Y5905345D01*
G01X-6108326Y5905345D02*
G01X-6117978Y5914997D01*
G01X-6121280Y5921601D01*
G01X-6121280Y5931507D01*
G01X-6117978Y5937857D01*
G01X-6108326Y5941159D01*
G01X-6075560Y5941159D01*
G01X-6121280Y6011263D02*
G01X-6075560Y6011263D01*
G01X-6111628Y6011263D02*
G01X-6117978Y6004659D01*
G01X-6121280Y5998309D01*
G01X-6121280Y5988403D01*
G01X-6117978Y5981799D01*
G01X-6111628Y5975449D01*
G01X-6101722Y5972147D01*
G01X-6095118Y5972147D01*
G01X-6085466Y5975449D01*
G01X-6078862Y5981799D01*
G01X-6075560Y5988403D01*
G01X-6075560Y5998309D01*
G01X-6078862Y6004659D01*
G01X-6085466Y6011263D01*
G01X-6121280Y6042251D02*
G01X-6075560Y6078065D01*
G01X-6121280Y6078065D02*
G01X-6075560Y6042251D01*
G01X-6114930Y6112355D02*
G01X-6111628Y6109053D01*
G01X-6108326Y6112355D01*
G01X-6111628Y6115657D01*
G01X-6114930Y6112355D01*
G01X-6091816Y6112355D02*
G01X-6088768Y6109053D01*
G01X-6085466Y6112355D01*
G01X-6088768Y6115657D01*
G01X-6091816Y6112355D01*
G01X-6144140Y6259167D02*
G01X-6144140Y6226401D01*
G01X-6114930Y6223099D01*
G01X-6117978Y6226401D01*
G01X-6121280Y6236053D01*
G01X-6121280Y6245959D01*
G01X-6117978Y6255865D01*
G01X-6111628Y6262215D01*
G01X-6101722Y6265517D01*
G01X-6095118Y6265517D01*
G01X-6085466Y6262215D01*
G01X-6078862Y6255865D01*
G01X-6075560Y6245959D01*
G01X-6075560Y6236053D01*
G01X-6078862Y6226401D01*
G01X-6082164Y6223099D01*
G01X-6088768Y6219797D01*
G01X-6144140Y6316063D02*
G01X-6141092Y6306157D01*
G01X-6131186Y6299807D01*
G01X-6114930Y6296505D01*
G01X-6105024Y6296505D01*
G01X-6088768Y6299807D01*
G01X-6078862Y6306157D01*
G01X-6075560Y6316063D01*
G01X-6075560Y6322667D01*
G01X-6078862Y6332319D01*
G01X-6088768Y6338923D01*
G01X-6105024Y6342225D01*
G01X-6114930Y6342225D01*
G01X-6131186Y6338923D01*
G01X-6141092Y6332319D01*
G01X-6144140Y6322667D01*
G01X-6144140Y6316063D01*
G01X-6121280Y6373213D02*
G01X-6075560Y6373213D01*
G01X-6108326Y6373213D02*
G01X-6117978Y6382865D01*
G01X-6121280Y6389469D01*
G01X-6121280Y6399375D01*
G01X-6117978Y6405725D01*
G01X-6108326Y6409027D01*
G01X-6075560Y6409027D01*
G01X-6108326Y6409027D02*
G01X-6117978Y6418933D01*
G01X-6121280Y6425537D01*
G01X-6121280Y6435189D01*
G01X-6117978Y6441793D01*
G01X-6108326Y6445095D01*
G01X-6075560Y6445095D01*
G01X-6144140Y6502245D02*
G01X-6075560Y6476083D01*
G01X-6144140Y6502245D02*
G01X-6075560Y6528407D01*
G01X-6098420Y6485735D02*
G01X-6098420Y6518501D01*
G01X-5432940Y5435894D02*
G01X-5432940Y5403382D01*
G01X-5403730Y5400080D01*
G01X-5406778Y5403382D01*
G01X-5410080Y5413034D01*
G01X-5410080Y5422940D01*
G01X-5406778Y5432846D01*
G01X-5400428Y5439196D01*
G01X-5390522Y5442498D01*
G01X-5383918Y5442498D01*
G01X-5374266Y5439196D01*
G01X-5367662Y5432846D01*
G01X-5364360Y5422940D01*
G01X-5364360Y5413034D01*
G01X-5367662Y5403382D01*
G01X-5370964Y5400080D01*
G01X-5377568Y5396778D01*
G01X-5432940Y5473486D02*
G01X-5364360Y5499648D01*
G01X-5432940Y5525810D02*
G01X-5364360Y5499648D01*
G01X-5410080Y5629950D02*
G01X-5364360Y5629950D01*
G01X-5397126Y5629950D02*
G01X-5406778Y5639856D01*
G01X-5410080Y5646206D01*
G01X-5410080Y5656112D01*
G01X-5406778Y5662716D01*
G01X-5397126Y5666018D01*
G01X-5364360Y5666018D01*
G01X-5397126Y5666018D02*
G01X-5406778Y5675670D01*
G01X-5410080Y5682274D01*
G01X-5410080Y5692180D01*
G01X-5406778Y5698530D01*
G01X-5397126Y5701832D01*
G01X-5364360Y5701832D01*
G01X-5410080Y5771936D02*
G01X-5364360Y5771936D01*
G01X-5400428Y5771936D02*
G01X-5406778Y5765332D01*
G01X-5410080Y5758982D01*
G01X-5410080Y5749076D01*
G01X-5406778Y5742472D01*
G01X-5400428Y5736122D01*
G01X-5390522Y5732820D01*
G01X-5383918Y5732820D01*
G01X-5374266Y5736122D01*
G01X-5367662Y5742472D01*
G01X-5364360Y5749076D01*
G01X-5364360Y5758982D01*
G01X-5367662Y5765332D01*
G01X-5374266Y5771936D01*
G01X-5410080Y5802924D02*
G01X-5364360Y5838738D01*
G01X-5410080Y5838738D02*
G01X-5364360Y5802924D01*
G01X-5403730Y5873028D02*
G01X-5400428Y5869726D01*
G01X-5397126Y5873028D01*
G01X-5400428Y5876330D01*
G01X-5403730Y5873028D01*
G01X-5380616Y5873028D02*
G01X-5377568Y5869726D01*
G01X-5374266Y5873028D01*
G01X-5377568Y5876330D01*
G01X-5380616Y5873028D01*
G01X-5419986Y5980470D02*
G01X-5423288Y5987074D01*
G01X-5432940Y5996726D01*
G01X-5364360Y5996726D01*
G01X-5432940Y6047272D02*
G01X-5429892Y6037366D01*
G01X-5419986Y6031016D01*
G01X-5403730Y6027714D01*
G01X-5393824Y6027714D01*
G01X-5377568Y6031016D01*
G01X-5367662Y6037366D01*
G01X-5364360Y6047272D01*
G01X-5364360Y6053876D01*
G01X-5367662Y6063528D01*
G01X-5377568Y6070132D01*
G01X-5393824Y6073434D01*
G01X-5403730Y6073434D01*
G01X-5419986Y6070132D01*
G01X-5429892Y6063528D01*
G01X-5432940Y6053876D01*
G01X-5432940Y6047272D01*
G01X-5432940Y6123980D02*
G01X-5429892Y6114074D01*
G01X-5419986Y6107724D01*
G01X-5403730Y6104422D01*
G01X-5393824Y6104422D01*
G01X-5377568Y6107724D01*
G01X-5367662Y6114074D01*
G01X-5364360Y6123980D01*
G01X-5364360Y6130584D01*
G01X-5367662Y6140236D01*
G01X-5377568Y6146840D01*
G01X-5393824Y6150142D01*
G01X-5403730Y6150142D01*
G01X-5419986Y6146840D01*
G01X-5429892Y6140236D01*
G01X-5432940Y6130584D01*
G01X-5432940Y6123980D01*
G01X-5432940Y6200688D02*
G01X-5429892Y6190782D01*
G01X-5419986Y6184432D01*
G01X-5403730Y6181130D01*
G01X-5393824Y6181130D01*
G01X-5377568Y6184432D01*
G01X-5367662Y6190782D01*
G01X-5364360Y6200688D01*
G01X-5364360Y6207292D01*
G01X-5367662Y6216944D01*
G01X-5377568Y6223548D01*
G01X-5393824Y6226850D01*
G01X-5403730Y6226850D01*
G01X-5419986Y6223548D01*
G01X-5429892Y6216944D01*
G01X-5432940Y6207292D01*
G01X-5432940Y6200688D01*
G01X-5410080Y6257838D02*
G01X-5364360Y6257838D01*
G01X-5397126Y6257838D02*
G01X-5406778Y6267490D01*
G01X-5410080Y6274094D01*
G01X-5410080Y6284000D01*
G01X-5406778Y6290350D01*
G01X-5397126Y6293652D01*
G01X-5364360Y6293652D01*
G01X-5397126Y6293652D02*
G01X-5406778Y6303558D01*
G01X-5410080Y6310162D01*
G01X-5410080Y6319814D01*
G01X-5406778Y6326418D01*
G01X-5397126Y6329720D01*
G01X-5364360Y6329720D01*
G01X-5432940Y6386870D02*
G01X-5364360Y6360708D01*
G01X-5432940Y6386870D02*
G01X-5364360Y6413032D01*
G01X-5387220Y6370360D02*
G01X-5387220Y6403126D01*
G04 Text End*

G04 Pad Start*
G54D11*
G01X-5775808Y-4453699D03*
G01X-7025792Y-4453699D03*
G01X-5775808Y-3953700D03*
G01X-7025792Y-3953700D03*
G01X-5813908Y-1189799D03*
G01X-7063892Y-1189799D03*
G01X-5813908Y-689800D03*
G01X-7063892Y-689800D03*
G01X-5788508Y-2777299D03*
G01X-7038492Y-2777299D03*
G01X-5788508Y-2277300D03*
G01X-7038492Y-2277300D03*
G54D12*
G01X-4829200Y-4146115D03*
G01X-3469182Y-3906136D03*
G54D13*
G01X-4149191Y-4026126D03*
G54D14*
G01X-2666995Y3914800D03*
G01X-2412995Y3914800D03*
G01X-2158995Y3914800D03*
G01X-1904995Y3914800D03*
G01X-2666995Y-3285211D03*
G01X-2146295Y-3285211D03*
G01X-2285995Y2214803D03*
G01X-2285995Y-1885214D03*
G01X-901695Y3914800D03*
G01X-647695Y3914800D03*
G01X-393695Y3914800D03*
G01X-139695Y3914800D03*
G01X-901695Y-3285211D03*
G01X-380995Y-3285211D03*
G01X-520695Y2214803D03*
G01X-520695Y-1885214D03*
G54D15*
G01X-5041900Y-520700D03*
G01X-4141902Y-520700D03*
G01X-5054600Y-1219200D03*
G01X-4154602Y-1219200D03*
G01X-5029200Y-2019300D03*
G01X-4129202Y-2019300D03*
G54D16*
G01X-6832600Y4114800D03*
G54D18*
G01X-6832600Y3860800D03*
G01X-6832600Y3352800D03*
G01X-6832600Y3098800D03*
G01X-6832600Y2844800D03*
G01X-6832600Y2590800D03*
G01X-6832600Y2336800D03*
G01X-6832600Y2082800D03*
G01X-6832600Y1828800D03*
G01X-6832600Y1574800D03*
G01X-6832600Y1320800D03*
G01X-5308600Y1320800D03*
G01X-5308600Y1574800D03*
G01X-5308600Y1828800D03*
G01X-5308600Y2082800D03*
G01X-5308600Y2336800D03*
G01X-5308600Y2590800D03*
G01X-5308600Y2844800D03*
G01X-5308600Y3098800D03*
G01X-5308600Y3352800D03*
G01X-5308600Y3606800D03*
G01X-5308600Y3860800D03*
G01X-5308600Y4114800D03*
G01X-6832600Y3606800D03*
G54D19*
G01X-7594600Y3924300D03*
G01X977900Y3924300D03*
G01X939800Y-4686300D03*
G01X-4432300Y-4953000D03*
G04 Pad End*

M02*

